<svg width="24" height="25" viewBox="0 0 24 25" fill="none" xmlns="http://www.w3.org/2000/svg">
<g id="basil:arrow-up-solid">
<path id="Vector" d="M15.4698 13.97C15.5385 13.8963 15.6213 13.8372 15.7133 13.7962C15.8053 13.7552 15.9046 13.7332 16.0053 13.7314C16.106 13.7296 16.2061 13.7481 16.2994 13.7859C16.3928 13.8236 16.4777 13.8797 16.5489 13.951C16.6201 14.0222 16.6762 14.107 16.714 14.2004C16.7517 14.2938 16.7702 14.3938 16.7684 14.4945C16.7667 14.5952 16.7446 14.6945 16.7036 14.7865C16.6626 14.8785 16.6035 14.9613 16.5298 15.03L12.5298 19.03C12.3892 19.1704 12.1986 19.2493 11.9998 19.2493C11.8011 19.2493 11.6105 19.1704 11.4698 19.03L7.46985 15.03C7.39616 14.9613 7.33706 14.8785 7.29607 14.7865C7.25507 14.6945 7.23303 14.5952 7.23126 14.4945C7.22948 14.3938 7.248 14.2938 7.28572 14.2004C7.32344 14.107 7.37959 14.0222 7.45081 13.9509C7.52203 13.8797 7.60686 13.8236 7.70025 13.7859C7.79364 13.7481 7.89367 13.7296 7.99437 13.7314C8.09507 13.7332 8.19439 13.7552 8.28639 13.7962C8.37838 13.8372 8.46118 13.8963 8.52985 13.97L11.2498 16.69L11.2498 6.99999C11.2498 6.80108 11.3289 6.61031 11.4695 6.46966C11.6102 6.329 11.8009 6.24999 11.9998 6.24999C12.1988 6.24999 12.3895 6.329 12.5302 6.46966C12.6708 6.61031 12.7498 6.80108 12.7498 6.99999L12.7498 16.69L15.4698 13.97Z" fill="#000B05"/>
</g>
</svg>
