<svg width="1440" height="599" viewBox="0 0 1440 599" fill="none" xmlns="http://www.w3.org/2000/svg">
<g filter="url(#filter0_f_117_736)">
<ellipse cx="666.5" cy="-19" rx="1248.5" ry="608" fill="url(#paint0_radial_117_736)"/>
</g>
<path opacity="0.2" d="M7.57664 481.273C-12.5781 481.273 -30.8579 477.992 -47.2629 471.43C-63.4335 464.634 -76.5575 454.674 -86.6348 441.55C-96.7122 428.191 -102.688 412.138 -104.563 393.389H-68.0035C-65.1912 411.2 -57.2231 425.262 -44.0991 435.573C-30.9751 445.651 -14.9216 450.689 4.06128 450.689C18.3571 450.689 29.9577 448.112 38.8633 442.956C48.0032 437.8 52.5732 430.183 52.5732 420.106C52.5732 412.841 50.3468 406.865 45.894 402.178C41.4412 397.49 35.2308 393.624 27.2626 390.577C19.2945 387.296 8.16253 383.546 -6.13324 379.328C-25.3505 373.469 -41.1696 367.844 -53.5905 362.454C-65.7771 356.83 -76.3231 348.861 -85.2287 338.55C-93.8999 328.238 -98.2355 314.997 -98.2355 298.826C-98.2355 282.187 -93.4312 268.36 -83.8226 257.345C-74.2139 246.096 -61.793 237.893 -46.5598 232.738C-31.3266 227.347 -15.0388 224.652 2.3036 224.652C21.0522 224.652 38.1602 227.816 53.6278 234.144C69.0953 240.471 81.7506 250.08 91.5936 262.97C101.437 275.859 107.296 291.678 109.17 310.427H71.5561C68.5094 293.084 61.1272 279.726 49.4093 270.352C37.9259 260.743 23.2786 255.939 5.46742 255.939C-6.71913 255.939 -17.2652 258.4 -26.1708 263.321C-35.0763 268.008 -39.5291 275.039 -39.5291 284.413C-39.5291 291.444 -37.1855 297.303 -32.4984 301.99C-27.5769 306.443 -21.3664 310.192 -13.867 313.239C-6.13324 316.051 4.88154 319.567 19.1773 323.785C39.332 329.644 55.8542 335.503 68.7438 341.362C81.6334 346.987 92.4138 354.955 101.085 365.266C109.756 375.578 114.092 388.936 114.092 405.341C114.092 421.746 109.405 435.691 100.03 447.174C90.6562 458.423 77.8837 466.977 61.7131 472.836C45.7768 478.461 27.7313 481.273 7.57664 481.273ZM156.559 229.925H243.037L302.446 392.686L361.504 229.925H445.521V476H380.135V273.867L306.313 476H265.886L192.767 276.328V476H156.559V229.925ZM574.142 229.925H639.879L730.927 476H660.62L637.77 412.372H543.558L520.708 476H482.743L574.142 229.925ZM628.278 382.843L591.719 281.249H589.609L553.05 382.843H628.278ZM861.626 229.925C893.968 229.925 919.395 236.487 937.91 249.611C956.424 262.735 965.681 280.898 965.681 304.099C965.681 318.395 961.345 330.816 952.674 341.362C944.003 351.908 932.168 360.11 917.169 365.969L988.882 476H914.357L849.674 377.219H847.916H827.527V476H761.79V229.925H861.626ZM861.275 347.69C874.164 347.69 884.125 343.94 891.155 336.44C898.42 328.707 902.053 318.161 902.053 304.802C902.053 291.444 898.42 281.015 891.155 273.516C884.125 266.016 874.164 262.266 861.275 262.266H827.527V347.69H861.275ZM1083.94 229.925H1149.67L1240.72 476H1170.41L1147.56 412.372H1053.35L1030.5 476H992.538L1083.94 229.925ZM1138.07 382.843L1101.51 281.249H1099.4L1062.84 382.843H1138.07ZM1366.26 481.273C1344.46 481.273 1324.77 475.883 1307.2 465.102C1289.86 454.322 1276.26 439.323 1266.42 420.106C1256.81 400.889 1252.01 378.976 1252.01 354.369C1252.01 328.824 1257.28 306.208 1267.83 286.522C1278.37 266.836 1293.02 251.603 1311.77 240.823C1330.52 230.042 1351.84 224.652 1375.75 224.652C1395.2 224.652 1412.66 228.285 1428.13 235.55C1443.83 242.815 1456.6 253.009 1466.44 266.133C1476.52 279.257 1483.2 294.256 1486.48 311.13H1448.51C1444.06 296.6 1436.56 284.999 1426.02 276.328C1415.7 267.657 1402.93 263.321 1387.7 263.321C1374.34 263.321 1362.51 267.188 1352.19 274.922C1341.88 282.421 1333.8 293.084 1327.94 306.911C1322.31 320.504 1319.5 336.089 1319.5 353.666C1319.5 371.477 1322.31 387.413 1327.94 401.474C1333.8 415.302 1341.65 426.082 1351.49 433.816C1361.33 441.55 1372.35 445.416 1384.54 445.416C1396.96 445.416 1407.5 440.964 1416.17 432.058C1424.84 423.153 1430.23 411.552 1432.34 397.256V374.758H1382.07V346.635H1498.08V476H1439.02V444.01C1431.99 455.728 1422.27 464.868 1409.85 471.43C1397.66 477.992 1383.13 481.273 1366.26 481.273ZM1632.28 229.925C1660.64 229.925 1685.48 235.081 1706.81 245.393C1728.13 255.47 1744.54 269.883 1756.02 288.632C1767.51 307.146 1773.25 328.589 1773.25 352.963C1773.25 377.336 1767.51 398.779 1756.02 417.294C1744.54 435.808 1728.13 450.221 1706.81 460.532C1685.48 470.844 1660.64 476 1632.28 476H1548.97V229.925H1632.28ZM1634.04 443.307C1657.01 443.307 1674.58 435.691 1686.77 420.457C1698.96 405.224 1705.05 382.726 1705.05 352.963C1705.05 323.199 1698.96 300.701 1686.77 285.468C1674.58 270.235 1657.01 262.618 1634.04 262.618H1615.06V443.307H1634.04Z" fill="#00381B"/>
<defs>
<filter id="filter0_f_117_736" x="-592" y="-637" width="2517" height="1236" filterUnits="userSpaceOnUse" color-interpolation-filters="sRGB">
<feFlood flood-opacity="0" result="BackgroundImageFix"/>
<feBlend mode="normal" in="SourceGraphic" in2="BackgroundImageFix" result="shape"/>
<feGaussianBlur stdDeviation="5" result="effect1_foregroundBlur_117_736"/>
</filter>
<radialGradient id="paint0_radial_117_736" cx="0" cy="0" r="1" gradientUnits="userSpaceOnUse" gradientTransform="translate(666.5 -19) rotate(90) scale(608 1248.5)">
<stop stop-color="#029D44"/>
<stop offset="1" stop-color="#00381B" stop-opacity="0"/>
</radialGradient>
</defs>
</svg>
