<svg width="24" height="25" viewBox="0 0 24 25" fill="none" xmlns="http://www.w3.org/2000/svg">
<g id="clarity:map-marker-solid" clip-path="url(#clip0_238_58)">
<path id="Vector" d="M12 1.8335C9.92347 1.83523 7.93199 2.65862 6.46054 4.12383C4.98909 5.58903 4.15723 7.57699 4.14667 9.6535C4.14667 12.7668 5.89333 15.3735 7.17333 17.2735L7.40667 17.6202C8.68019 19.4659 10.0464 21.246 11.5 22.9535L12.0067 23.5468L12.5133 22.9535C13.9668 21.2458 15.333 19.4658 16.6067 17.6202L16.84 17.2668C18.1133 15.3668 19.86 12.7668 19.86 9.6535C19.8494 7.57583 19.0167 5.58687 17.5438 4.12148C16.0709 2.65608 14.0777 1.83347 12 1.8335ZM12 13.1668C11.135 13.1668 10.2895 12.9103 9.57031 12.4298C8.85112 11.9492 8.29058 11.2662 7.95957 10.4671C7.62856 9.66798 7.54195 8.78865 7.7107 7.9403C7.87945 7.09196 8.29597 6.3127 8.90759 5.70108C9.51921 5.08946 10.2985 4.67294 11.1468 4.5042C11.9952 4.33545 12.8745 4.42206 13.6736 4.75306C14.4727 5.08407 15.1557 5.64461 15.6363 6.3638C16.1168 7.08299 16.3733 7.92853 16.3733 8.7935C16.3733 9.95338 15.9126 11.0658 15.0924 11.8859C14.2723 12.7061 13.1599 13.1668 12 13.1668Z" fill="#FFDD82"/>
<path id="Vector_2" d="M12 11.28C13.3734 11.28 14.4867 10.1667 14.4867 8.79331C14.4867 7.41996 13.3734 6.30664 12 6.30664C10.6267 6.30664 9.51334 7.41996 9.51334 8.79331C9.51334 10.1667 10.6267 11.28 12 11.28Z" fill="#FFDD82"/>
</g>
<defs>
<clipPath id="clip0_238_58">
<rect width="24" height="24" fill="white" transform="translate(0 0.5)"/>
</clipPath>
</defs>
</svg>
