<svg width="26" height="26" viewBox="0 0 26 26" fill="none" xmlns="http://www.w3.org/2000/svg">
<g id="basil:search-solid">
<path id="Vector" fill-rule="evenodd" clip-rule="evenodd" d="M15.4844 16.5896C14.0802 17.7116 12.2997 18.2533 10.5085 18.1035C8.71737 17.9537 7.05157 17.1237 5.85325 15.7841C4.65493 14.4444 4.01505 12.6968 4.06504 10.9001C4.11503 9.10338 4.85108 7.39402 6.12203 6.12307C7.39298 4.85212 9.10234 4.11606 10.899 4.06608C12.6957 4.01609 14.4434 4.65597 15.783 5.85429C17.1227 7.05261 17.9526 8.71841 18.1024 10.5095C18.2522 12.3007 17.7105 14.0812 16.5885 15.4854L21.9594 20.8552C22.0361 20.9267 22.0977 21.013 22.1404 21.1088C22.1831 21.2046 22.206 21.3081 22.2079 21.413C22.2097 21.5179 22.1905 21.6221 22.1512 21.7194C22.1119 21.8166 22.0534 21.905 21.9792 21.9792C21.905 22.0534 21.8166 22.1119 21.7194 22.1512C21.6221 22.1904 21.5179 22.2097 21.413 22.2079C21.3081 22.206 21.2046 22.1831 21.1088 22.1404C21.013 22.0977 20.9267 22.0361 20.8552 21.9594L15.4844 16.5896ZM7.22916 14.9625C6.46462 14.1979 5.9439 13.2238 5.73282 12.1633C5.52173 11.1028 5.62976 10.0036 6.04323 9.00447C6.45671 8.00537 7.15708 7.15126 8.05584 6.55009C8.95459 5.94892 10.0114 5.62768 11.0927 5.62695C12.1739 5.62622 13.2312 5.94605 14.1307 6.54601C15.0303 7.14596 15.7318 7.99912 16.1466 8.99767C16.5615 9.99621 16.671 11.0953 16.4613 12.1561C16.2517 13.2168 15.7323 14.1916 14.9687 14.9573L14.9635 14.9625L14.9583 14.9667C13.9324 15.9902 12.5421 16.5647 11.0929 16.5639C9.64366 16.5631 8.254 15.9872 7.22916 14.9625Z" fill="#029D44"/>
</g>
</svg>
