<svg width="48" height="48" viewBox="0 0 48 48" fill="none" xmlns="http://www.w3.org/2000/svg">
<g id="clarity:shield-check-solid" clip-path="url(#clip0_53_106)">
<path id="Vector" d="M41.6667 9.86667C38.6453 9.06028 35.6936 8.01247 32.84 6.73333C30.0326 5.51549 27.3225 4.08465 24.7333 2.45333C24.2877 2.17784 23.7197 2.18171 23.28 2.46667C20.6909 4.09798 17.9808 5.52882 15.1733 6.74667C12.3151 8.02192 9.35887 9.06529 6.33334 9.86667C5.74524 10.0157 5.33334 10.5449 5.33334 11.1516V21.24C5.33334 39.0933 23.3733 45.7733 23.5467 45.84L23.6948 45.8923C23.8923 45.962 24.1077 45.962 24.3052 45.8923C24.4033 45.8577 24.4929 45.8313 24.5907 45.7962C26.2723 45.1919 42.6667 38.2786 42.6667 21.24V11.1516C42.6667 10.5449 42.2548 10.0157 41.6667 9.86667ZM35.5733 18.7333L22.095 31.8255C21.3104 32.5877 20.0591 32.5781 19.2862 31.804L12.2533 24.76C11.8997 24.4064 11.7011 23.9268 11.7011 23.4267C11.7011 22.9266 11.8997 22.447 12.2533 22.0933C12.607 21.7397 13.0866 21.541 13.5867 21.541C14.0868 21.541 14.5664 21.7397 14.92 22.0933L19.3206 26.5749C20.0938 27.3623 21.3586 27.3746 22.147 26.6025L32.9733 16C33.1484 15.8249 33.3563 15.686 33.5851 15.5912C33.8139 15.4965 34.0591 15.4477 34.3067 15.4477C34.5543 15.4477 34.7995 15.4965 35.0283 15.5912C35.257 15.686 35.4649 15.8249 35.64 16C35.8151 16.1751 35.954 16.383 36.0488 16.6117C36.1435 16.8405 36.1923 17.0857 36.1923 17.3333C36.1923 17.581 36.1435 17.8262 36.0488 18.0549C35.954 18.2837 35.8151 18.4916 35.64 18.6667L35.5733 18.7333Z" fill="#029D44"/>
</g>
<defs>
<clipPath id="clip0_53_106">
<rect width="48" height="48" fill="white"/>
</clipPath>
</defs>
</svg>
