<svg width="48" height="48" viewBox="0 0 48 48" fill="none" xmlns="http://www.w3.org/2000/svg">
<g id="clarity:tree-solid" clip-path="url(#clip0_53_102)">
<path id="Vector" d="M24 2.66666C14.4 2.26666 6.39997 9.73332 5.99997 19.3333C5.59997 28.9333 13.0666 36.9333 22.6666 37.3333V30.4L15.7333 23.4667C15.2 22.9333 15.2 22.1333 15.7333 21.6C16.2666 21.0667 17.0666 21.0667 17.6 21.6L22.6666 26.6667V18.4L19.0666 14.8C18.5333 14.2667 18.5333 13.4667 19.0666 12.9333C19.6 12.4 20.4 12.4 20.9333 12.9333L25.3333 17.3333V21.3333L29.7333 16.9333C30.2666 16.4 31.0666 16.4 31.6 16.9333C32.1333 17.4667 32.1333 18.2667 31.6 18.8L25.3333 25.0667V37.3333C34.9333 36.9333 42.4 28.9333 42 19.3333C41.6 9.73332 33.6 2.26666 24 2.66666Z" fill="#029D44"/>
<path id="Vector_2" d="M24 37.3333H22.6667V44C22.6667 44.8 23.2 45.3333 24 45.3333C24.8 45.3333 25.3334 44.8 25.3334 44V37.3333H24Z" fill="#029D44"/>
</g>
<defs>
<clipPath id="clip0_53_102">
<rect width="48" height="48" fill="white"/>
</clipPath>
</defs>
</svg>
