<svg width="127" height="16" viewBox="0 0 127 16" fill="none" xmlns="http://www.w3.org/2000/svg">
<path d="M2.20061 2.99679L3.24046 3.14239L2.6719 7.20278L3.45426 7.31233L5.28644 5.54938L6.52437 5.72272L4.26336 7.88002L5.88051 10.6813L4.59307 10.5011L3.31836 8.28286L2.536 8.17331L2.25587 10.1738L1.21602 10.0282L2.20061 2.99679Z" fill="#447D5A"/>
<path d="M9.37417 11.0993C8.86947 11.0547 8.42121 10.9014 8.0294 10.6393C7.64423 10.3778 7.3494 10.0405 7.1449 9.62763C6.94763 9.20867 6.87038 8.7568 6.91315 8.27201C6.95593 7.78723 7.11082 7.35919 7.37782 6.98788C7.65205 6.61053 8.005 6.32712 8.43665 6.13766C8.86831 5.9482 9.33317 5.87545 9.83124 5.9194C10.3359 5.96393 10.7809 6.11696 11.166 6.3785C11.5579 6.64062 11.8524 6.98116 12.0497 7.40012C12.2542 7.81303 12.335 8.26187 12.2923 8.74665C12.2501 9.2248 12.0919 9.65255 11.8176 10.0299C11.5506 10.4012 11.201 10.6849 10.7688 10.881C10.3371 11.0705 9.87224 11.1432 9.37417 11.0993ZM9.45855 10.143C9.93006 10.1846 10.332 10.0661 10.6645 9.78761C10.9969 9.50908 11.1842 9.13075 11.2264 8.6526C11.2686 8.17446 11.1504 7.76917 10.8719 7.43674C10.5934 7.1043 10.2184 6.91728 9.74686 6.87568C9.26871 6.83349 8.86342 6.95166 8.53099 7.23018C8.20578 7.50265 8.02179 7.88128 7.97901 8.36606C7.93682 8.8442 8.05499 9.24949 8.33352 9.58193C8.61204 9.91436 8.98705 10.1014 9.45855 10.143Z" fill="#447D5A"/>
<path d="M15.5987 6.47528L15.5525 7.20381C15.7822 6.95119 16.0513 6.76451 16.3595 6.64377C16.6749 6.51681 17.0155 6.46493 17.3814 6.48814C17.8538 6.5181 18.2725 6.65821 18.6373 6.90848C19.0022 7.15874 19.2785 7.49022 19.4661 7.90292C19.6607 8.30939 19.7427 8.75547 19.7119 9.24117C19.681 9.72686 19.5432 10.1623 19.2983 10.5476C19.0605 10.9267 18.7415 11.217 18.3413 11.4188C17.9477 11.6209 17.518 11.7073 17.0523 11.6777C16.713 11.6562 16.401 11.5729 16.1162 11.428C15.8386 11.2768 15.6007 11.078 15.4025 10.8316L15.2354 13.4663L14.1876 13.3998L14.6306 6.41388L15.5987 6.47528ZM16.9634 10.7101C17.2561 10.7287 17.5267 10.6757 17.775 10.5512C18.0239 10.42 18.2259 10.2358 18.3813 9.99846C18.537 9.7545 18.6246 9.47949 18.644 9.17344C18.6634 8.86739 18.6111 8.58685 18.487 8.33181C18.3633 8.07013 18.1861 7.86183 17.9554 7.70692C17.7252 7.54535 17.4637 7.45529 17.171 7.43672C16.8782 7.41816 16.6074 7.47447 16.3586 7.60565C16.1103 7.73018 15.9082 7.91442 15.7524 8.15839C15.6038 8.39612 15.5197 8.66801 15.5003 8.97406C15.4809 9.28012 15.5297 9.56377 15.6467 9.82504C15.7709 10.0801 15.948 10.2884 16.1783 10.4499C16.4089 10.6048 16.6706 10.6916 16.9634 10.7101Z" fill="#447D5A"/>
<path d="M23.5029 12.0406C22.9968 12.0157 22.543 11.8799 22.1413 11.6332C21.7462 11.3868 21.4385 11.0613 21.2181 10.6567C21.0047 10.2457 20.91 9.79716 20.9339 9.31108C20.9578 8.825 21.0959 8.39126 21.3483 8.00987C21.6076 7.62214 21.9493 7.32523 22.3733 7.11914C22.7972 6.91305 23.2589 6.82229 23.7583 6.84685C24.2644 6.87174 24.7149 7.00736 25.11 7.25373C25.5117 7.50043 25.8192 7.82927 26.0326 8.24025C26.253 8.6449 26.3513 9.09026 26.3274 9.57634C26.3038 10.0558 26.1623 10.4893 25.9029 10.8771C25.6506 11.2585 25.3122 11.5555 24.8879 11.7683C24.464 11.9744 24.0023 12.0651 23.5029 12.0406ZM23.5501 11.0817C24.0228 11.105 24.4199 10.971 24.7412 10.6798C25.0626 10.3885 25.2351 10.0032 25.2586 9.52378C25.2822 9.04436 25.1484 8.64397 24.8572 8.32261C24.5659 8.00125 24.1839 7.82894 23.7112 7.80569C23.2317 7.78211 22.8314 7.91594 22.51 8.20717C22.1956 8.49207 22.0265 8.87756 22.0026 9.36364C21.979 9.84306 22.1128 10.2435 22.4041 10.5648C22.6953 10.8862 23.0773 11.0585 23.5501 11.0817Z" fill="#447D5A"/>
<path d="M29.5696 8.19309L27.5812 8.11307L27.6206 7.13386L32.6465 7.33611L32.6071 8.31532L30.6187 8.2353L30.4571 12.2521L29.4079 12.2098L29.5696 8.19309Z" fill="#447D5A"/>
<path d="M34.5129 5.30376L35.5623 5.33917L35.424 9.43684L36.2136 9.46347L37.8501 7.51755L39.0994 7.5597L37.0779 9.94289L38.9808 12.5585L37.6815 12.5147L36.1805 10.4429L35.391 10.4163L35.3229 12.4351L34.2735 12.3997L34.5129 5.30376Z" fill="#447D5A"/>
<path d="M42.3536 12.7577C41.8272 12.7428 41.3605 12.6195 40.9535 12.3879C40.5535 12.1498 40.2424 11.8309 40.0202 11.4311C39.8048 11.0315 39.704 10.5885 39.7177 10.102C39.7317 9.6089 39.8642 9.16914 40.1152 8.78275C40.3665 8.38971 40.7019 8.08574 41.1214 7.87087C41.5412 7.64932 41.9977 7.54553 42.4908 7.55949C42.9773 7.57327 43.4139 7.69901 43.8007 7.93672C44.1943 8.16795 44.4988 8.48336 44.7142 8.88295C44.9299 9.27588 45.0309 9.71224 45.0173 10.1921C45.0147 10.2853 45.0044 10.4118 44.9866 10.5713L40.7483 10.4513C40.7973 10.8395 40.9746 11.1714 41.2803 11.4468C41.5862 11.7156 41.969 11.8564 42.4288 11.8695C42.7154 11.8776 42.9804 11.8217 43.2239 11.7019C43.474 11.5823 43.6554 11.4173 43.7681 11.2071L44.8077 11.2365C44.7327 11.5279 44.5786 11.7903 44.3452 12.0238C44.1185 12.2574 43.8298 12.4427 43.4791 12.5795C43.1353 12.7098 42.7601 12.7692 42.3536 12.7577ZM43.981 9.69252C43.8979 9.33003 43.7194 9.03819 43.4456 8.81702C43.1717 8.59585 42.8416 8.47979 42.4551 8.46885C42.0619 8.45772 41.7122 8.55786 41.4061 8.76928C41.1002 8.97404 40.8989 9.25179 40.8023 9.60253L43.981 9.69252Z" fill="#447D5A"/>
<path d="M53.2201 7.92806C53.7666 7.94001 54.194 8.06605 54.5021 8.30618C54.8104 8.53964 54.9601 8.85965 54.9513 9.26622C54.9457 9.5195 54.8776 9.73806 54.7469 9.92191C54.6228 10.1059 54.443 10.2487 54.2074 10.3502L54.2065 10.3902C54.4974 10.5033 54.7173 10.6648 54.8661 10.8747C55.015 11.0781 55.0863 11.323 55.0801 11.6096C55.0707 12.0362 54.8968 12.3658 54.5583 12.5984C54.2265 12.8312 53.7673 12.9412 53.1808 12.9284L50.5414 12.8707L50.6507 7.87187L53.2201 7.92806ZM52.9944 10.0136C53.261 10.0195 53.4756 9.96746 53.638 9.85766C53.8006 9.74118 53.884 9.5863 53.8882 9.39301C53.8925 9.19973 53.8192 9.04476 53.6683 8.9281C53.5243 8.80492 53.3224 8.74049 53.0624 8.7348L51.6628 8.7042L51.6348 9.98389L52.9944 10.0136ZM53.1085 12.1166C53.3884 12.1227 53.6063 12.0708 53.7621 11.9609C53.9246 11.8444 54.0082 11.6829 54.0127 11.4762C54.0171 11.2763 53.9405 11.1179 53.783 11.0011C53.6256 10.8843 53.4035 10.8228 53.1169 10.8165L51.6173 10.7837L51.5889 12.0834L53.1085 12.1166Z" fill="#447D5A"/>
<path d="M56.1031 7.98829L57.1529 8.00879L57.0553 13.0078L56.0055 12.9873L56.1031 7.98829ZM55.9009 5.53388L57.4606 5.56433L56.6956 7.34974L56.5957 7.34779L55.9009 5.53388Z" fill="#447D5A"/>
<path d="M58.9989 12.1067C59.0926 11.6949 59.1598 11.2727 59.2004 10.84C59.2479 10.4007 59.277 9.86781 59.2876 9.24123L59.2966 8.71131L59.3078 8.0514L63.5172 8.12292L63.4483 12.1823L64.1682 12.1946L64.1326 14.2843L63.1228 14.2671L63.1423 13.1173L59.4229 13.0541L59.4033 14.2039L58.3935 14.1868L58.429 12.0971L58.9989 12.1067ZM62.4516 9.03495L60.3219 8.99876L60.3175 9.25873C60.3071 9.87197 60.278 10.4016 60.2305 10.8475C60.183 11.2867 60.1124 11.7123 60.0188 12.1241L62.3984 12.1645L62.4516 9.03495Z" fill="#447D5A"/>
<path d="M68.6311 13.3007C68.1044 13.2934 67.636 13.1769 67.2258 12.9512C66.8223 12.7189 66.5066 12.4045 66.2787 12.008C66.0575 11.6116 65.9503 11.1701 65.957 10.6834C65.9638 10.1901 66.09 9.74852 66.3354 9.35854C66.5809 8.9619 66.9119 8.65312 67.3283 8.43219C67.7448 8.2046 68.1997 8.09421 68.693 8.10104C69.1796 8.10777 69.618 8.22718 70.0082 8.45927C70.4051 8.68479 70.7142 8.99576 70.9354 9.39219C71.1567 9.78196 71.264 10.2168 71.2573 10.6968C71.256 10.7901 71.2476 10.9167 71.2321 11.0765L66.9925 11.0178C67.0471 11.4053 67.2293 11.7345 67.5389 12.0054C67.8486 12.2698 68.2334 12.4051 68.6934 12.4115C68.98 12.4154 69.2442 12.3557 69.4859 12.2324C69.7343 12.1092 69.9133 11.9416 70.0229 11.7298L71.0628 11.7442C70.9921 12.0366 70.8418 12.3012 70.6118 12.538C70.3885 12.7749 70.1025 12.9643 69.7539 13.1062C69.412 13.2415 69.0377 13.3063 68.6311 13.3007ZM70.2139 10.2123C70.1256 9.85103 69.9429 9.56181 69.6659 9.34462C69.3889 9.12743 69.057 9.01617 68.6704 9.01082C68.2771 9.00537 67.929 9.11057 67.626 9.32639C67.323 9.53556 67.1258 9.81619 67.0342 10.1683L70.2139 10.2123Z" fill="#447D5A"/>
<path d="M75.1904 13.3843C74.6838 13.3786 74.2251 13.2601 73.8143 13.0289C73.4102 12.7977 73.0904 12.4841 72.8548 12.0881C72.6259 11.6855 72.5142 11.2409 72.5197 10.7543C72.5251 10.2676 72.6467 9.82897 72.8844 9.43827C73.1288 9.04097 73.459 8.73131 73.8748 8.50927C74.2907 8.28724 74.7486 8.17901 75.2485 8.1846C75.7552 8.19026 76.2105 8.30869 76.6146 8.53988C77.0254 8.77115 77.3452 9.08808 77.5741 9.49066C77.8097 9.88665 77.9248 10.328 77.9193 10.8146C77.914 11.2946 77.789 11.7332 77.5446 12.1305C77.3069 12.5212 76.9801 12.8309 76.5642 13.0596C76.1483 13.2816 75.6904 13.3899 75.1904 13.3843ZM75.2012 12.4243C75.6745 12.4296 76.0662 12.2807 76.3762 11.9774C76.6863 11.6742 76.844 11.2826 76.8494 10.8026C76.8547 10.3227 76.7058 9.92765 76.4026 9.61758C76.0994 9.30751 75.7111 9.14983 75.2378 9.14454C74.7578 9.13918 74.3628 9.28811 74.0527 9.59133C73.7494 9.88796 73.595 10.2796 73.5896 10.7662C73.5842 11.2462 73.7332 11.6412 74.0364 11.9513C74.3396 12.2614 74.7279 12.419 75.2012 12.4243Z" fill="#447D5A"/>
<path d="M82.9851 8.3637L87.6849 8.39983L87.6465 13.3997L86.5965 13.3916L86.6274 9.37173L84.0275 9.35175L83.9966 13.3716L82.9466 13.3636L82.9851 8.3637Z" fill="#447D5A"/>
<path d="M91.2215 8.4231L91.2175 9.15309C91.4323 8.88759 91.6901 8.68565 91.9908 8.54728C92.2983 8.40228 92.6353 8.33078 93.002 8.33277C93.4753 8.33534 93.9014 8.45099 94.2801 8.67971C94.6589 8.90844 94.9539 9.22338 95.165 9.62453C95.3829 10.0191 95.4905 10.4596 95.4879 10.9463C95.4852 11.433 95.3728 11.8757 95.1506 12.2745C94.9352 12.6667 94.6335 12.975 94.2456 13.1996C93.8644 13.4242 93.4404 13.5352 92.9738 13.5327C92.6338 13.5308 92.3175 13.4658 92.0248 13.3375C91.7389 13.2027 91.4899 13.018 91.2778 12.7835L91.2635 15.4234L90.2135 15.4177L90.2515 8.41784L91.2215 8.4231ZM92.829 12.5719C93.1223 12.5735 93.3894 12.5049 93.6301 12.3662C93.8709 12.2209 94.062 12.0252 94.2033 11.7793C94.3447 11.5268 94.4162 11.2472 94.4179 10.9405C94.4195 10.6338 94.351 10.3568 94.2124 10.1094C94.0738 9.85528 93.8848 9.65758 93.6456 9.51628C93.4064 9.36831 93.1401 9.29353 92.8468 9.29194C92.5535 9.29035 92.2864 9.36223 92.0456 9.50759C91.8049 9.64629 91.6138 9.84192 91.4724 10.0945C91.3377 10.3404 91.2696 10.6167 91.2679 10.9234C91.2662 11.2301 91.3314 11.5104 91.4633 11.7645C91.602 12.0119 91.7909 12.2096 92.0301 12.3576C92.2694 12.4989 92.5357 12.5703 92.829 12.5719Z" fill="#447D5A"/>
<path d="M99.5243 13.5621C99.0177 13.5604 98.5581 13.4455 98.1455 13.2175C97.7396 12.9895 97.4173 12.6784 97.1786 12.2843C96.9466 11.8835 96.8314 11.4398 96.833 10.9531C96.8346 10.4664 96.9528 10.0268 97.1874 9.63429C97.4288 9.23509 97.7565 8.92285 98.1706 8.69756C98.5846 8.47227 99.0417 8.36046 99.5417 8.36213C100.048 8.36382 100.505 8.47868 100.911 8.7067C101.323 8.93474 101.645 9.24915 101.877 9.64993C102.116 10.0441 102.235 10.4845 102.233 10.9711C102.231 11.4511 102.11 11.8907 101.869 12.2899C101.634 12.6825 101.31 12.9947 100.895 13.2267C100.481 13.452 100.024 13.5638 99.5243 13.5621ZM99.5275 12.6021C100.001 12.6037 100.391 12.4517 100.699 12.146C101.007 11.8404 101.161 11.4476 101.163 10.9676C101.165 10.4876 101.013 10.0937 100.707 9.78603C100.401 9.47834 100.012 9.3237 99.5385 9.32213C99.0585 9.32053 98.6646 9.47255 98.357 9.77819C98.056 10.0772 97.9046 10.47 97.903 10.9567C97.9014 11.4367 98.0534 11.8305 98.3591 12.1382C98.6647 12.4459 99.0542 12.6005 99.5275 12.6021Z" fill="#447D5A"/>
<path d="M107.05 8.48155L108.1 8.48209L108.099 10.4921L110.699 10.4934L110.7 8.48344L111.75 8.48399L111.747 13.484L110.697 13.4834L110.698 11.4734L108.098 11.4721L108.097 13.4821L107.047 13.4815L107.05 8.48155Z" fill="#447D5A"/>
<path d="M115.823 13.5916C115.296 13.5924 114.879 13.4664 114.572 13.2135C114.272 12.9607 114.121 12.6176 114.12 12.1842C114.12 11.6976 114.336 11.3172 114.769 11.0432C115.202 10.7692 115.841 10.6082 116.688 10.5603C117.075 10.533 117.348 10.4826 117.508 10.409C117.674 10.3288 117.757 10.212 117.757 10.0586C117.757 9.82531 117.643 9.62881 117.416 9.46916C117.196 9.3095 116.923 9.22992 116.596 9.23042C116.249 9.23095 115.963 9.31806 115.736 9.49174C115.51 9.65875 115.364 9.89565 115.297 10.2024L114.307 10.2039C114.393 9.6438 114.643 9.20009 115.055 8.87278C115.475 8.54547 115.998 8.38134 116.625 8.38037C117.278 8.37937 117.798 8.56191 118.185 8.92798C118.573 9.29405 118.767 9.78376 118.768 10.3971L118.771 12.5471L119.411 12.5461L119.412 13.4761L117.892 13.4884L117.891 12.7384C117.692 12.9987 117.405 13.2058 117.032 13.3598C116.659 13.5137 116.256 13.5909 115.823 13.5916ZM116.011 12.7613C116.331 12.7608 116.628 12.687 116.901 12.54C117.181 12.3929 117.4 12.1959 117.56 11.9489C117.726 11.702 117.809 11.4352 117.809 11.1486L117.809 11.0786C117.756 11.1386 117.626 11.1955 117.419 11.2492C117.212 11.2961 116.972 11.3298 116.699 11.3503C116.159 11.3911 115.769 11.475 115.53 11.6021C115.29 11.7224 115.17 11.8959 115.17 12.1226C115.171 12.3293 115.244 12.4892 115.391 12.6023C115.538 12.7087 115.745 12.7617 116.011 12.7613Z" fill="#447D5A"/>
<path d="M123.317 13.5649C122.81 13.5666 122.353 13.4548 121.946 13.2295C121.545 13.0042 121.227 12.6953 120.993 12.3027C120.765 11.9101 120.65 11.4672 120.648 10.9739C120.647 10.4872 120.762 10.0468 120.994 9.65269C121.226 9.25192 121.545 8.93751 121.951 8.70949C122.357 8.48146 122.806 8.36662 123.3 8.36497C123.746 8.36347 124.15 8.44879 124.51 8.62091C124.871 8.79304 125.165 9.03539 125.393 9.34796C125.621 9.65387 125.762 10.0067 125.816 10.4066L124.776 10.41C124.689 10.077 124.514 9.81424 124.254 9.62178C123.993 9.42265 123.676 9.32371 123.303 9.32496C122.996 9.32599 122.72 9.40025 122.473 9.54774C122.234 9.68854 122.045 9.88584 121.905 10.1396C121.766 10.3868 121.697 10.6637 121.698 10.9703C121.699 11.277 121.77 11.5568 121.911 11.8096C122.052 12.0558 122.243 12.2519 122.483 12.3977C122.73 12.5369 123.007 12.606 123.314 12.6049C123.687 12.6037 124.003 12.5026 124.263 12.3018C124.529 12.1009 124.701 11.8336 124.78 11.5L125.82 11.4965C125.761 11.8967 125.616 12.2539 125.384 12.568C125.158 12.8821 124.865 13.1264 124.506 13.301C124.147 13.4755 123.75 13.5635 123.317 13.5649Z" fill="#447D5A"/>
</svg>
