<svg width="24" height="24" viewBox="0 0 24 24" fill="none" xmlns="http://www.w3.org/2000/svg">
<g id="basil:arrow-up-solid">
<path id="Vector" d="M13.47 8.53C13.3963 8.46134 13.3372 8.37854 13.2962 8.28654C13.2552 8.19454 13.2332 8.09523 13.2314 7.99452C13.2296 7.89382 13.2481 7.79379 13.2859 7.7004C13.3236 7.60701 13.3797 7.52218 13.451 7.45096C13.5222 7.37974 13.607 7.3236 13.7004 7.28588C13.7938 7.24816 13.8938 7.22963 13.9945 7.23141C14.0952 7.23319 14.1945 7.25523 14.2865 7.29622C14.3785 7.33721 14.4613 7.39631 14.53 7.47L18.53 11.47C18.6704 11.6106 18.7493 11.8013 18.7493 12C18.7493 12.1988 18.6704 12.3894 18.53 12.53L14.53 16.53C14.4613 16.6037 14.3785 16.6628 14.2865 16.7038C14.1945 16.7448 14.0952 16.7668 13.9945 16.7686C13.8938 16.7704 13.7938 16.7518 13.7004 16.7141C13.607 16.6764 13.5222 16.6203 13.451 16.549C13.3797 16.4778 13.3236 16.393 13.2859 16.2996C13.2481 16.2062 13.2296 16.1062 13.2314 16.0055C13.2332 15.9048 13.2552 15.8055 13.2962 15.7135C13.3372 15.6215 13.3963 15.5387 13.47 15.47L16.19 12.75L6.49999 12.75C6.30108 12.75 6.11031 12.671 5.96966 12.5303C5.82901 12.3897 5.74999 12.1989 5.74999 12C5.74999 11.8011 5.82901 11.6103 5.96966 11.4697C6.11031 11.329 6.30108 11.25 6.49999 11.25L16.19 11.25L13.47 8.53Z" fill="#447D5A"/>
</g>
</svg>
