<svg width="128" height="14" viewBox="0 0 128 14" fill="none" xmlns="http://www.w3.org/2000/svg">
<path d="M3.23133 8.31424L1.24133 8.31616L1.24039 7.33616L6.27039 7.33131L6.27133 8.31131L4.28133 8.31323L4.28521 12.3332L3.23521 12.3342L3.23133 8.31424Z" fill="#447D5A"/>
<path d="M7.75396 7.32869L8.80395 7.32579L8.81395 10.9458L11.5039 7.31834L12.5939 7.31533L12.6077 12.3153L11.5578 12.3182L11.5478 8.69822L8.85776 12.3257L7.76776 12.3287L7.75396 7.32869Z" fill="#447D5A"/>
<path d="M16.6946 12.3992C16.188 12.4014 15.7308 12.2901 15.3232 12.0651C14.9222 11.8402 14.6042 11.5316 14.3692 11.1393C14.1408 10.7469 14.0255 10.3041 14.0234 9.81073C14.0213 9.32407 14.1361 8.88357 14.3677 8.48923C14.5993 8.08823 14.918 7.77352 15.3236 7.5451C15.7293 7.31668 16.1788 7.2014 16.6722 7.19927C17.1188 7.19734 17.5225 7.28227 17.8833 7.45404C18.244 7.62582 18.5384 7.86789 18.7664 8.18024C18.9944 8.48592 19.1359 8.83865 19.191 9.23841L18.151 9.2429C18.0629 8.90995 17.8884 8.64737 17.6276 8.45516C17.3667 8.25628 17.0496 8.15765 16.6763 8.15926C16.3696 8.16059 16.0933 8.23511 15.8473 8.38284C15.6079 8.52388 15.4187 8.72136 15.2798 8.9753C15.1409 9.22257 15.0721 9.49954 15.0734 9.8062C15.0747 10.1129 15.1459 10.3926 15.287 10.6453C15.4281 10.8913 15.6189 11.0872 15.8596 11.2328C16.1068 11.3718 16.3838 11.4406 16.6905 11.4392C17.0638 11.4376 17.38 11.3363 17.6392 11.1351C17.905 10.934 18.0772 10.6666 18.1557 10.3329L19.1957 10.3284C19.1374 10.7287 18.9923 11.086 18.7603 11.4003C18.535 11.7146 18.2427 11.9592 17.8835 12.1341C17.5242 12.309 17.1279 12.3974 16.6946 12.3992Z" fill="#447D5A"/>
<path d="M20.3432 7.28287L21.3932 7.2768L21.4048 9.28676L24.0048 9.27173L23.9931 7.26176L25.0431 7.25569L25.072 12.2556L24.022 12.2617L24.0104 10.2517L21.4105 10.2667L21.4221 12.2767L20.3721 12.2828L20.3432 7.28287Z" fill="#447D5A"/>
<path d="M27.2333 7.24132L28.2833 7.2341L28.3176 12.234L27.2677 12.2412L27.2333 7.24132ZM26.9665 4.79309L28.5264 4.78237L27.8088 6.58734L27.7088 6.58803L26.9665 4.79309Z" fill="#447D5A"/>
<path d="M32.0663 8.18654L30.0763 8.20228L30.0686 7.22231L35.0984 7.18252L35.1062 8.16249L33.1162 8.17823L33.148 12.1981L32.098 12.2064L32.0663 8.18654Z" fill="#447D5A"/>
<path d="M37.6816 7.15975L37.7085 8.98958L38.8485 8.97905C39.4818 8.97321 39.9797 9.11195 40.3424 9.39528C40.7116 9.67189 40.8985 10.0568 40.903 10.5502C40.9075 11.0368 40.7278 11.4251 40.3638 11.7152C40.0064 11.9985 39.511 12.1431 38.8777 12.1489L36.6778 12.1692L36.6317 7.16944L37.6816 7.15975ZM38.9295 11.2584C39.2161 11.2558 39.4389 11.1904 39.5977 11.0622C39.7565 10.9341 39.835 10.7634 39.833 10.55C39.831 10.3367 39.7461 10.1675 39.5783 10.0424C39.4171 9.91718 39.1966 9.85588 38.9166 9.85846L37.7166 9.86954L37.7395 11.2694L38.9295 11.2584Z" fill="#447D5A"/>
<path d="M45.6979 11.1416C45.7798 10.7273 45.835 10.3034 45.8633 9.86967C45.8983 9.42924 45.9122 8.89571 45.9051 8.26909L45.899 7.73912L45.8915 7.07916L50.1012 7.03105L50.1476 11.0908L50.8675 11.0826L50.8914 13.1724L49.8815 13.184L49.8683 12.034L46.1486 12.0766L46.1617 13.2265L45.1518 13.238L45.1279 11.1482L45.6979 11.1416ZM49.0619 7.97299L46.932 7.99733L46.935 8.25732C46.942 8.87061 46.9281 9.4008 46.8932 9.8479C46.8582 10.2883 46.7997 10.7157 46.7178 11.13L49.0976 11.1028L49.0619 7.97299Z" fill="#447D5A"/>
<path d="M51.9649 12.08C51.7316 12.083 51.5413 12.0588 51.3939 12.0074L51.3814 11.0475C51.5152 11.0857 51.6422 11.1041 51.7621 11.1025C52.0621 11.0986 52.2606 10.9793 52.3575 10.7447C52.4992 10.3628 52.5599 9.39529 52.5397 7.84209L52.5287 7.00216L56.6784 6.94801L56.7436 11.9476L55.6937 11.9613L55.6412 7.94163L53.5214 7.96929L53.526 8.31926C53.5363 9.11253 53.518 9.75282 53.471 10.2401C53.4241 10.7275 53.3126 11.1256 53.1366 11.4346C52.8888 11.8579 52.4982 12.073 51.9649 12.08Z" fill="#447D5A"/>
<path d="M60.2203 10.0191C59.905 9.8904 59.6622 9.70398 59.4919 9.4598C59.3215 9.20896 59.2338 8.91356 59.2288 8.5736C59.2212 8.06032 59.4018 7.65427 59.7708 7.35545C60.1397 7.04995 60.6507 6.89237 61.304 6.8827L63.4937 6.85029L63.5677 11.8497L62.5178 11.8653L62.4931 10.1955L61.2433 10.214L60.0981 11.9011L58.8782 11.9192L60.2203 10.0191ZM62.4566 7.72574L61.2667 7.74335C60.9601 7.74789 60.7179 7.82481 60.54 7.97413C60.3622 8.12344 60.2752 8.32142 60.2788 8.56806C60.2825 8.8147 60.3754 9.01001 60.5575 9.154C60.7397 9.29799 60.984 9.36771 61.2907 9.36317L62.4806 9.34556L62.4566 7.72574Z" fill="#447D5A"/>
<path d="M68.5576 6.77022L73.2569 6.68773L73.3446 11.687L72.2948 11.7054L72.2243 7.68601L69.6247 7.73164L69.6952 11.751L68.6454 11.7694L68.5576 6.77022Z" fill="#447D5A"/>
<path d="M78.0707 11.6969C77.5441 11.7074 77.072 11.6067 76.6544 11.395C76.2433 11.1765 75.9172 10.8729 75.6761 10.4843C75.4417 10.0955 75.3196 9.65785 75.3099 9.17127C75.3001 8.67804 75.4113 8.23241 75.6434 7.83438C75.8754 7.42969 76.1958 7.10992 76.6045 6.87509C77.0132 6.63358 77.4641 6.50793 77.9573 6.49812C78.4439 6.48845 78.886 6.59301 79.2838 6.81182C79.6881 7.02382 80.0075 7.3242 80.2419 7.71295C80.4762 8.09503 80.5981 8.52603 80.6077 9.00593C80.6095 9.09925 80.6054 9.22602 80.5952 9.38626L76.3561 9.47054C76.4238 9.85594 76.6169 10.1788 76.9355 10.4392C77.2539 10.6929 77.6431 10.8152 78.103 10.8061C78.3896 10.8004 78.6516 10.7318 78.889 10.6004C79.1331 10.4689 79.3064 10.2954 79.4088 10.08L80.4486 10.0593C80.3878 10.3539 80.2464 10.6234 80.0246 10.8679C79.8094 11.1122 79.53 11.3111 79.1863 11.4647C78.8491 11.6114 78.4773 11.6888 78.0707 11.6969ZM79.5486 8.5569C79.4481 8.19882 79.2558 7.91593 78.9716 7.7082C78.6874 7.50047 78.352 7.40045 77.9654 7.40814C77.5721 7.41596 77.2277 7.53283 76.9322 7.75875C76.6365 7.978 76.4488 8.26512 76.3692 8.62011L79.5486 8.5569Z" fill="#447D5A"/>
<path d="M83.6995 6.47951L83.7159 7.20933C83.9232 6.93793 84.1752 6.72887 84.472 6.58216C84.7752 6.42863 85.1102 6.34775 85.4768 6.3395C85.95 6.32885 86.3791 6.43256 86.7641 6.65062C87.1491 6.86869 87.4527 7.17527 87.675 7.57037C87.9038 7.95865 88.0237 8.39607 88.0346 8.88261C88.0455 9.36916 87.9455 9.81485 87.7346 10.2197C87.5302 10.6177 87.2372 10.9344 86.8557 11.1697C86.4809 11.4049 86.0603 11.5277 85.5937 11.5382C85.2538 11.5458 84.9358 11.4896 84.6397 11.3696C84.3501 11.2427 84.096 11.0651 83.8775 10.8366L83.9369 13.4759L82.8871 13.4996L82.7297 6.50133L83.6995 6.47951ZM85.4222 10.5818C85.7154 10.5752 85.9804 10.4992 86.2172 10.3539C86.4539 10.2018 86.6394 10.0009 86.7738 9.75119C86.9081 9.49477 86.9718 9.21327 86.9649 8.90668C86.958 8.60009 86.8818 8.32507 86.7363 8.08161C86.5906 7.83149 86.3962 7.63915 86.1531 7.50458C85.9099 7.36335 85.6416 7.29603 85.3484 7.30263C85.0551 7.30923 84.7902 7.38854 84.5535 7.54057C84.3167 7.68593 84.1312 7.88682 83.997 8.14324C83.8692 8.39284 83.8088 8.67094 83.8157 8.97753C83.8226 9.28412 83.8955 9.56255 84.0345 9.81282C84.18 10.0563 84.3744 10.2486 84.6176 10.3898C84.8607 10.5244 85.1289 10.5884 85.4222 10.5818Z" fill="#447D5A"/>
<path d="M91.8336 11.3896C91.3071 11.403 90.8345 11.305 90.4157 11.0956C90.0034 10.8793 89.6756 10.5776 89.4323 10.1903C89.1957 9.80288 89.0712 9.3659 89.0588 8.87939C89.0463 8.38622 89.1549 7.93998 89.3848 7.54066C89.6146 7.13468 89.9332 6.81313 90.3406 6.57602C90.7478 6.33223 91.1981 6.20406 91.6912 6.1915C92.1777 6.17911 92.6205 6.28121 93.0195 6.49779C93.4249 6.70753 93.746 7.00612 93.9826 7.39356C94.219 7.77433 94.3433 8.20464 94.3556 8.68448C94.3579 8.77778 94.3545 8.90458 94.3452 9.06487L90.1066 9.17281C90.1764 9.55783 90.3714 9.87964 90.6914 10.1382C91.0112 10.3902 91.4011 10.5103 91.8609 10.4986C92.1475 10.4913 92.4092 10.4213 92.6459 10.2885C92.8892 10.1556 93.0615 9.98118 93.1627 9.7652L94.2024 9.73872C94.1432 10.0337 94.0034 10.304 93.7829 10.5497C93.5691 10.7952 93.2907 10.9957 92.9479 11.1511C92.6116 11.2997 92.2402 11.3792 91.8336 11.3896ZM93.2939 8.24137C93.1915 7.88386 92.9976 7.60204 92.7122 7.3959C92.4269 7.18977 92.0909 7.09162 91.7044 7.10146C91.3112 7.11148 90.9674 7.23027 90.6731 7.45783C90.3787 7.67874 90.1926 7.9669 90.115 8.32233L93.2939 8.24137Z" fill="#447D5A"/>
<path d="M96.375 6.16906L100.124 6.06232L100.151 7.04192L97.4525 7.11877L97.5669 11.1371L96.5173 11.167L96.375 6.16906Z" fill="#447D5A"/>
<path d="M101.58 11.0928C101.347 11.1003 101.156 11.0797 101.008 11.0311L100.977 10.0716C101.112 10.1073 101.239 10.1232 101.359 10.1194C101.659 10.1097 101.855 9.98672 101.947 9.75029C102.082 9.36577 102.124 8.39725 102.074 6.84472L102.047 6.00515L106.195 5.87182L106.356 10.8692L105.306 10.903L105.177 6.88505L103.058 6.95316L103.069 7.30298C103.095 8.0959 103.089 8.73643 103.051 9.22456C103.013 9.71269 102.91 10.1129 102.74 10.4252C102.5 10.8531 102.113 11.0756 101.58 11.0928Z" fill="#447D5A"/>
<path d="M109.536 8.87801C109.218 8.75634 108.971 8.57534 108.796 8.335C108.62 8.088 108.525 7.79462 108.513 7.45485C108.494 6.94187 108.665 6.53191 109.028 6.22498C109.39 5.91139 109.897 5.74252 110.55 5.71838L112.739 5.63745L112.923 10.634L111.874 10.6728L111.812 9.00397L110.563 9.05017L109.456 10.7623L108.236 10.8074L109.536 8.87801ZM111.721 6.53566L110.532 6.57964C110.225 6.59097 109.985 6.67325 109.81 6.82647C109.636 6.97968 109.553 7.17954 109.562 7.42604C109.572 7.67254 109.669 7.86574 109.854 8.00566C110.039 8.14557 110.285 8.20986 110.592 8.19853L111.781 8.15456L111.721 6.53566Z" fill="#447D5A"/>
<path d="M114.262 9.64438C114.331 9.22772 114.373 8.80221 114.387 8.36784C114.409 7.92653 114.406 7.39283 114.379 6.76674L114.356 6.23723L114.328 5.57783L118.534 5.39764L118.708 9.45391L119.427 9.4231L119.517 11.5112L118.508 11.5544L118.458 10.4055L114.742 10.5647L114.791 11.7136L113.782 11.7569L113.692 9.66878L114.262 9.64438ZM117.525 6.37172L115.397 6.46289L115.408 6.72265C115.434 7.33543 115.437 7.8658 115.416 8.31377C115.395 8.75507 115.35 9.18406 115.281 9.60073L117.659 9.49886L117.525 6.37172Z" fill="#447D5A"/>
<path d="M123.087 12.2915C122.774 12.3076 122.481 12.2526 122.207 12.1264C121.941 12.0066 121.721 11.8143 121.547 11.5496C121.373 11.2848 121.276 10.9527 121.255 10.5532L121.241 10.2836L122.21 10.2338L122.228 10.5833C122.241 10.843 122.325 11.0456 122.48 11.1912C122.641 11.3431 122.835 11.4133 123.061 11.4016C123.288 11.39 123.464 11.3075 123.589 11.1542C123.715 11.0075 123.772 10.8177 123.76 10.5847L123.756 10.4948C123.747 10.335 123.734 10.2088 123.716 10.1163C123.698 10.0238 123.663 9.93211 123.612 9.8413L120.865 5.29635L122.073 5.23422L123.976 8.54091C123.998 8.57983 124.02 8.63206 124.044 8.69762C124.073 8.75617 124.093 8.8119 124.102 8.86482C124.118 8.7839 124.143 8.68915 124.178 8.58057L125.389 5.06375L126.487 5.00727L124.866 9.49646C124.819 9.62569 124.788 9.74076 124.773 9.84166C124.758 9.93589 124.754 10.0562 124.762 10.2027L124.777 10.5023C124.804 11.0216 124.655 11.4432 124.332 11.7669C124.015 12.0903 123.6 12.2651 123.087 12.2915Z" fill="#447D5A"/>
</svg>
