<svg width="43" height="40" viewBox="0 0 43 40" fill="none" xmlns="http://www.w3.org/2000/svg">
<g id="basil:telegram-solid">
<g id="Vector" opacity="0.3" filter="url(#filter0_f_10_902)">
<path fill-rule="evenodd" clip-rule="evenodd" d="M30.644 30.3867V30.3841L30.668 30.3267L34.6667 10.1667V10.1027C34.6667 9.60008 34.48 9.16141 34.0774 8.89874C33.724 8.66808 33.3174 8.65208 33.032 8.67341C32.7664 8.69743 32.5044 8.7511 32.2507 8.83341C32.1425 8.86828 32.0358 8.90743 31.9307 8.95074L31.9134 8.95741L9.62004 17.7027L9.61338 17.7054C9.5456 17.7286 9.47926 17.7557 9.41471 17.7867C9.25616 17.858 9.10404 17.9427 8.96004 18.0401C8.67338 18.2374 8.12804 18.7014 8.22004 19.4374C8.29604 20.0481 8.71604 20.4347 9.00004 20.6361C9.16768 20.7536 9.3479 20.8519 9.53738 20.9294L9.58004 20.9481L9.59338 20.9521L9.60271 20.9561L13.504 22.2694C13.4907 22.5134 13.5147 22.7627 13.58 23.0094L15.5334 30.4214C15.6401 30.8254 15.8707 31.1859 16.1927 31.4521C16.5148 31.7184 16.9122 31.8771 17.3291 31.9059C17.746 31.9348 18.1614 31.8323 18.5171 31.6129C18.8727 31.3935 19.1507 31.0682 19.312 30.6827L22.3627 27.4214L27.6014 31.4374L27.676 31.4694C28.152 31.6774 28.596 31.7427 29.0027 31.6881C29.4094 31.6321 29.732 31.4614 29.9747 31.2681C30.2554 31.0405 30.4791 30.7506 30.628 30.4214L30.6387 30.3987L30.6427 30.3907L30.644 30.3867ZM15.5134 22.5001C15.4917 22.4178 15.4969 22.3308 15.5281 22.2517C15.5592 22.1726 15.6148 22.1055 15.6867 22.0601L28.9147 13.6601C28.9147 13.6601 29.6934 13.1867 29.6654 13.6601C29.6654 13.6601 29.804 13.7427 29.3867 14.1307C28.992 14.5001 19.9587 23.2214 19.044 24.1041C18.9932 24.1535 18.9576 24.2164 18.9414 24.2854L17.4667 29.9121L15.5134 22.5001Z" fill="#000B05"/>
</g>
<path id="Vector_2" fill-rule="evenodd" clip-rule="evenodd" d="M34.644 26.3867V26.3841L34.668 26.3267L38.6667 6.16674V6.10274C38.6667 5.60008 38.48 5.16141 38.0774 4.89874C37.724 4.66808 37.3174 4.65208 37.032 4.67341C36.7664 4.69743 36.5044 4.7511 36.2507 4.83341C36.1425 4.86828 36.0358 4.90743 35.9307 4.95074L35.9134 4.95741L13.62 13.7027L13.6134 13.7054C13.5456 13.7286 13.4793 13.7557 13.4147 13.7867C13.2562 13.858 13.104 13.9427 12.96 14.0401C12.6734 14.2374 12.128 14.7014 12.22 15.4374C12.296 16.0481 12.716 16.4347 13 16.6361C13.1677 16.7536 13.3479 16.8519 13.5374 16.9294L13.58 16.9481L13.5934 16.9521L13.6027 16.9561L17.504 18.2694C17.4907 18.5134 17.5147 18.7627 17.58 19.0094L19.5334 26.4214C19.6401 26.8254 19.8707 27.1859 20.1927 27.4521C20.5148 27.7184 20.9122 27.8771 21.3291 27.9059C21.746 27.9348 22.1614 27.8323 22.5171 27.6129C22.8727 27.3935 23.1507 27.0682 23.312 26.6827L26.3627 23.4214L31.6014 27.4374L31.676 27.4694C32.152 27.6774 32.596 27.7427 33.0027 27.6881C33.4094 27.6321 33.732 27.4614 33.9747 27.2681C34.2554 27.0405 34.4791 26.7506 34.628 26.4214L34.6387 26.3987L34.6427 26.3907L34.644 26.3867ZM19.5134 18.5001C19.4917 18.4178 19.4969 18.3308 19.5281 18.2517C19.5592 18.1726 19.6148 18.1055 19.6867 18.0601L32.9147 9.66008C32.9147 9.66008 33.6934 9.18674 33.6654 9.66008C33.6654 9.66008 33.804 9.74274 33.3867 10.1307C32.992 10.5001 23.9587 19.2214 23.044 20.1041C22.9932 20.1535 22.9576 20.2164 22.9414 20.2854L21.4667 25.9121L19.5134 18.5001Z" fill="#FFDD82"/>
</g>
<defs>
<filter id="filter0_f_10_902" x="0.209717" y="0.666504" width="42.457" height="39.2442" filterUnits="userSpaceOnUse" color-interpolation-filters="sRGB">
<feFlood flood-opacity="0" result="BackgroundImageFix"/>
<feBlend mode="normal" in="SourceGraphic" in2="BackgroundImageFix" result="shape"/>
<feGaussianBlur stdDeviation="4" result="effect1_foregroundBlur_10_902"/>
</filter>
</defs>
</svg>
