<svg width="42" height="45" viewBox="0 0 42 45" fill="none" xmlns="http://www.w3.org/2000/svg">
<g id="basil:viber-solid">
<g id="Vector" opacity="0.3" filter="url(#filter0_f_10_905)">
<path fill-rule="evenodd" clip-rule="evenodd" d="M27.2346 9.50406C23.0397 8.56635 18.6895 8.56635 14.4946 9.50406L14.0426 9.60406C12.8627 9.86788 11.7789 10.4536 10.9118 11.2963C10.0447 12.1389 9.42812 13.2055 9.13063 14.3774C8.0673 18.5674 8.0673 22.9567 9.13063 27.1467C9.41433 28.2644 9.98851 29.2872 10.7949 30.1114C11.6014 30.9357 12.6114 31.532 13.7226 31.8401L14.3426 35.5414C14.3624 35.6589 14.4134 35.769 14.4901 35.8602C14.5669 35.9513 14.6667 36.0202 14.7792 36.0597C14.8917 36.0992 15.0126 36.1078 15.1296 36.0847C15.2465 36.0615 15.355 36.0074 15.444 35.9281L19.0853 32.6707C21.8188 32.8375 24.5621 32.6189 27.2346 32.0214L27.688 31.9214C28.8679 31.6576 29.9517 31.0718 30.8188 30.2292C31.6859 29.3865 32.3025 28.32 32.6 27.1481C33.6632 22.958 33.6632 18.5688 32.6 14.3787C32.3024 13.2066 31.6856 12.14 30.8183 11.2973C29.9509 10.4547 28.8669 9.86899 27.6866 9.60539L27.2346 9.50406ZM15.62 14.2694C15.3722 14.2333 15.1195 14.2832 14.904 14.4107H14.8853C14.3853 14.7041 13.9346 15.0734 13.5506 15.5081C13.2306 15.8774 13.0573 16.2507 13.012 16.6107C12.9853 16.8241 13.004 17.0401 13.0666 17.2441L13.0906 17.2574C13.4506 18.3147 13.92 19.3321 14.4933 20.2894C15.2326 21.634 16.1423 22.8777 17.2 23.9894L17.232 24.0347L17.2826 24.0721L17.3133 24.1081L17.3506 24.1401C18.4663 25.2009 19.7128 26.115 21.06 26.8601C22.6 27.6987 23.5346 28.0947 24.096 28.2601V28.2681C24.26 28.3187 24.4093 28.3414 24.56 28.3414C25.038 28.3061 25.4905 28.1117 25.8453 27.7894C26.2786 27.4054 26.6453 26.9534 26.9306 26.4507V26.4414C27.1986 25.9347 27.108 25.4574 26.7213 25.1334C25.9446 24.4548 25.1048 23.852 24.2133 23.3334C23.616 23.0094 23.0093 23.2054 22.764 23.5334L22.24 24.1947C21.9706 24.5227 21.4826 24.4774 21.4826 24.4774L21.4693 24.4854C17.828 23.5561 16.856 19.8694 16.856 19.8694C16.856 19.8694 16.8106 19.3681 17.148 19.1121L17.804 18.5841C18.1186 18.3281 18.3373 17.7227 18 17.1254C17.4848 16.2331 16.8832 15.3935 16.204 14.6187C16.0558 14.4364 15.8481 14.3122 15.6173 14.2681L15.62 14.2694ZM21.772 12.6667C21.5952 12.6667 21.4256 12.737 21.3006 12.862C21.1755 12.987 21.1053 13.1566 21.1053 13.3334C21.1053 13.5102 21.1755 13.6798 21.3006 13.8048C21.4256 13.9298 21.5952 14.0001 21.772 14.0001C23.4586 14.0001 24.8586 14.5507 25.9666 15.6067C26.536 16.1841 26.98 16.8681 27.2706 17.6174C27.5626 18.3681 27.696 19.1694 27.6613 19.9721C27.6576 20.0596 27.6712 20.147 27.7013 20.2293C27.7314 20.3116 27.7775 20.3872 27.8368 20.4517C27.9565 20.5819 28.1232 20.6593 28.3 20.6667C28.4768 20.6742 28.6493 20.611 28.7796 20.4913C28.9098 20.3715 28.9872 20.2049 28.9946 20.0281C29.036 19.0407 28.8721 18.0555 28.5133 17.1347C28.1529 16.2096 27.6066 15.3682 26.908 14.6627L26.8946 14.6494C25.52 13.3361 23.78 12.6667 21.772 12.6667ZM21.7266 14.8587C21.5498 14.8587 21.3803 14.929 21.2552 15.054C21.1302 15.179 21.06 15.3486 21.06 15.5254C21.06 15.7022 21.1302 15.8718 21.2552 15.9968C21.3803 16.1218 21.5498 16.1921 21.7266 16.1921H21.7493C22.9653 16.2787 23.8506 16.6841 24.4706 17.3494C25.1066 18.0347 25.436 18.8867 25.4106 19.9401C25.4066 20.1169 25.4729 20.2881 25.5951 20.416C25.7172 20.5439 25.8852 20.618 26.062 20.6221C26.2388 20.6261 26.41 20.5598 26.5379 20.4376C26.6658 20.3155 26.7399 20.1475 26.744 19.9707C26.776 18.5881 26.3306 17.3947 25.448 16.4427V16.4401C24.5453 15.4721 23.3066 14.9601 21.816 14.8601L21.7933 14.8574L21.7266 14.8587ZM21.7013 17.0921C21.6121 17.0842 21.5222 17.0944 21.437 17.122C21.3518 17.1496 21.273 17.1942 21.2054 17.2529C21.1378 17.3117 21.0828 17.3834 21.0435 17.4639C21.0042 17.5444 20.9816 17.632 20.9769 17.7215C20.9723 17.8109 20.9857 17.9004 21.0164 17.9845C21.047 18.0687 21.0944 18.1458 21.1555 18.2112C21.2166 18.2767 21.2903 18.3291 21.3722 18.3655C21.4541 18.4018 21.5424 18.4213 21.632 18.4227C22.1893 18.4521 22.5453 18.6201 22.7693 18.8454C22.9946 19.0721 23.1626 19.4361 23.1933 20.0054C23.195 20.0949 23.2146 20.1831 23.2511 20.2648C23.2876 20.3465 23.3401 20.42 23.4056 20.481C23.4711 20.542 23.5482 20.5891 23.6323 20.6196C23.7165 20.6502 23.8059 20.6635 23.8952 20.6587C23.9846 20.654 24.072 20.6313 24.1524 20.592C24.2329 20.5527 24.3045 20.4977 24.3632 20.4301C24.4219 20.3626 24.4663 20.2839 24.494 20.1988C24.5216 20.1137 24.5318 20.0239 24.524 19.9347C24.4813 19.1347 24.2306 18.4281 23.7173 17.9081C23.2013 17.3881 22.4986 17.1347 21.7013 17.0921Z" fill="#000B05"/>
</g>
<path id="Vector_2" fill-rule="evenodd" clip-rule="evenodd" d="M31.2346 4.50406C27.0397 3.56635 22.6895 3.56635 18.4946 4.50406L18.0426 4.60406C16.8627 4.86788 15.7789 5.45364 14.9118 6.29628C14.0447 7.13892 13.4281 8.20545 13.1306 9.37739C12.0673 13.5674 12.0673 17.9567 13.1306 22.1467C13.4143 23.2644 13.9885 24.2872 14.7949 25.1114C15.6014 25.9357 16.6114 26.532 17.7226 26.8401L18.3426 30.5414C18.3624 30.6589 18.4134 30.769 18.4901 30.8602C18.5669 30.9513 18.6667 31.0202 18.7792 31.0597C18.8917 31.0992 19.0126 31.1078 19.1296 31.0847C19.2465 31.0615 19.355 31.0074 19.444 30.9281L23.0853 27.6707C25.8188 27.8375 28.5621 27.6189 31.2346 27.0214L31.688 26.9214C32.8679 26.6576 33.9517 26.0718 34.8188 25.2292C35.6859 24.3865 36.3025 23.32 36.6 22.1481C37.6632 17.958 37.6632 13.5688 36.6 9.37873C36.3024 8.20662 35.6856 7.13997 34.8183 6.29731C33.9509 5.45465 32.8669 4.86899 31.6866 4.60539L31.2346 4.50406ZM19.62 9.26939C19.3722 9.23333 19.1195 9.2832 18.904 9.41073H18.8853C18.3853 9.70406 17.9346 10.0734 17.5506 10.5081C17.2306 10.8774 17.0573 11.2507 17.012 11.6107C16.9853 11.8241 17.004 12.0401 17.0666 12.2441L17.0906 12.2574C17.4506 13.3147 17.92 14.3321 18.4933 15.2894C19.2326 16.634 20.1423 17.8777 21.2 18.9894L21.232 19.0347L21.2826 19.0721L21.3133 19.1081L21.3506 19.1401C22.4663 20.2009 23.7128 21.115 25.06 21.8601C26.6 22.6987 27.5346 23.0947 28.096 23.2601V23.2681C28.26 23.3187 28.4093 23.3414 28.56 23.3414C29.038 23.3061 29.4905 23.1117 29.8453 22.7894C30.2786 22.4054 30.6453 21.9534 30.9306 21.4507V21.4414C31.1986 20.9347 31.108 20.4574 30.7213 20.1334C29.9446 19.4548 29.1048 18.852 28.2133 18.3334C27.616 18.0094 27.0093 18.2054 26.764 18.5334L26.24 19.1947C25.9706 19.5227 25.4826 19.4774 25.4826 19.4774L25.4693 19.4854C21.828 18.5561 20.856 14.8694 20.856 14.8694C20.856 14.8694 20.8106 14.3681 21.148 14.1121L21.804 13.5841C22.1186 13.3281 22.3373 12.7227 22 12.1254C21.4848 11.2331 20.8832 10.3935 20.204 9.61873C20.0558 9.43639 19.8481 9.3122 19.6173 9.26806L19.62 9.26939ZM25.772 7.66673C25.5952 7.66673 25.4256 7.73697 25.3006 7.86199C25.1755 7.98701 25.1053 8.15658 25.1053 8.33339C25.1053 8.5102 25.1755 8.67977 25.3006 8.8048C25.4256 8.92982 25.5952 9.00006 25.772 9.00006C27.4586 9.00006 28.8586 9.55073 29.9666 10.6067C30.536 11.1841 30.98 11.8681 31.2706 12.6174C31.5626 13.3681 31.696 14.1694 31.6613 14.9721C31.6576 15.0596 31.6712 15.147 31.7013 15.2293C31.7314 15.3116 31.7775 15.3872 31.8368 15.4517C31.9565 15.5819 32.1232 15.6593 32.3 15.6667C32.4768 15.6742 32.6493 15.611 32.7796 15.4913C32.9098 15.3715 32.9872 15.2049 32.9946 15.0281C33.036 14.0407 32.8721 13.0555 32.5133 12.1347C32.1529 11.2096 31.6066 10.3682 30.908 9.66273L30.8946 9.64939C29.52 8.33606 27.78 7.66673 25.772 7.66673ZM25.7266 9.85873C25.5498 9.85873 25.3803 9.92897 25.2552 10.054C25.1302 10.179 25.06 10.3486 25.06 10.5254C25.06 10.7022 25.1302 10.8718 25.2552 10.9968C25.3803 11.1218 25.5498 11.1921 25.7266 11.1921H25.7493C26.9653 11.2787 27.8506 11.6841 28.4706 12.3494C29.1066 13.0347 29.436 13.8867 29.4106 14.9401C29.4066 15.1169 29.4729 15.2881 29.5951 15.416C29.7172 15.5439 29.8852 15.618 30.062 15.6221C30.2388 15.6261 30.41 15.5598 30.5379 15.4376C30.6658 15.3155 30.7399 15.1475 30.744 14.9707C30.776 13.5881 30.3306 12.3947 29.448 11.4427V11.4401C28.5453 10.4721 27.3066 9.96006 25.816 9.86006L25.7933 9.85739L25.7266 9.85873ZM25.7013 12.0921C25.6121 12.0842 25.5222 12.0944 25.437 12.122C25.3518 12.1496 25.273 12.1942 25.2054 12.2529C25.1378 12.3117 25.0828 12.3834 25.0435 12.4639C25.0042 12.5444 24.9816 12.632 24.9769 12.7215C24.9723 12.8109 24.9857 12.9004 25.0164 12.9845C25.047 13.0687 25.0944 13.1458 25.1555 13.2112C25.2166 13.2767 25.2903 13.3291 25.3722 13.3655C25.4541 13.4018 25.5424 13.4213 25.632 13.4227C26.1893 13.4521 26.5453 13.6201 26.7693 13.8454C26.9946 14.0721 27.1626 14.4361 27.1933 15.0054C27.195 15.0949 27.2146 15.1831 27.2511 15.2648C27.2876 15.3465 27.3401 15.42 27.4056 15.481C27.4711 15.542 27.5482 15.5891 27.6323 15.6196C27.7165 15.6502 27.8059 15.6635 27.8952 15.6587C27.9846 15.654 28.072 15.6313 28.1524 15.592C28.2329 15.5527 28.3045 15.4977 28.3632 15.4301C28.4219 15.3626 28.4663 15.2839 28.494 15.1988C28.5216 15.1137 28.5318 15.0239 28.524 14.9347C28.4813 14.1347 28.2306 13.4281 27.7173 12.9081C27.2013 12.3881 26.4986 12.1347 25.7013 12.0921Z" fill="#FFDD82"/>
</g>
<defs>
<filter id="filter0_f_10_905" x="0.33313" y="0.800781" width="41.0643" height="43.2966" filterUnits="userSpaceOnUse" color-interpolation-filters="sRGB">
<feFlood flood-opacity="0" result="BackgroundImageFix"/>
<feBlend mode="normal" in="SourceGraphic" in2="BackgroundImageFix" result="shape"/>
<feGaussianBlur stdDeviation="4" result="effect1_foregroundBlur_10_905"/>
</filter>
</defs>
</svg>
