<svg width="44" height="44" viewBox="0 0 44 44" fill="none" xmlns="http://www.w3.org/2000/svg">
<g id="basil:whatsapp-outline">
<g id="Vector" opacity="0.3" filter="url(#filter0_f_10_908)">
<path d="M17.848 15.5599C18.092 15.5666 18.3627 15.5799 18.62 16.1506C18.7907 16.5306 19.0773 17.2306 19.312 17.8012C19.4947 18.2452 19.644 18.6106 19.6813 18.6852C19.7667 18.8559 19.82 19.0519 19.708 19.2826L19.6707 19.3599C19.5943 19.539 19.4908 19.7054 19.364 19.8532C19.2996 19.928 19.236 20.0036 19.1733 20.0799C19.06 20.2186 18.9467 20.3546 18.8507 20.4506C18.6787 20.6212 18.5013 20.8052 18.6987 21.1466C18.8973 21.4879 19.5893 22.6106 20.612 23.5159C21.3605 24.1898 22.2186 24.7309 23.1493 25.1159C23.2427 25.1559 23.3187 25.1892 23.376 25.2172C23.7187 25.3879 23.9227 25.3612 24.12 25.1319C24.3187 24.9012 24.9773 24.1332 25.2093 23.7919C25.4333 23.4506 25.6627 23.5039 25.98 23.6212C26.2973 23.7399 27.9853 24.5679 28.328 24.7372L28.5187 24.8306C28.7573 24.9439 28.9187 25.0226 28.988 25.1372C29.0733 25.2826 29.0733 25.9639 28.7907 26.7666C28.5 27.5666 27.1013 28.3346 26.468 28.3932L26.288 28.4146C25.7067 28.4839 24.9707 28.5746 22.3467 27.5412C19.112 26.2692 16.9773 23.1146 16.5467 22.4759C16.5237 22.4417 16.5001 22.4079 16.476 22.3746L16.468 22.3639C16.272 22.1012 15.0707 20.4946 15.0707 18.8359C15.0707 17.2492 15.8533 16.4226 16.2093 16.0466L16.272 15.9799C16.3872 15.8497 16.528 15.7447 16.6856 15.6713C16.8432 15.5979 17.0142 15.5577 17.188 15.5532C17.4187 15.5532 17.6507 15.5532 17.848 15.5599Z" fill="#000B05"/>
</g>
<g id="Vector_2" opacity="0.3" filter="url(#filter1_f_10_908)">
<path fill-rule="evenodd" clip-rule="evenodd" d="M8.91202 34.4412C8.8869 34.5316 8.88606 34.627 8.90959 34.7179C8.93313 34.8087 8.9802 34.8917 9.04607 34.9585C9.11193 35.0253 9.19425 35.0736 9.28472 35.0984C9.37519 35.1232 9.47061 35.1237 9.56135 35.0999L15.704 33.4946C17.6529 34.5502 19.8343 35.1033 22.0507 35.1039H22.056C29.3707 35.1039 35.3334 29.1759 35.3334 21.8879C35.338 20.1499 34.9969 18.4284 34.3298 16.8236C33.6628 15.2187 32.6832 13.7626 31.448 12.5399C30.2152 11.3069 28.7507 10.33 27.1389 9.66523C25.527 9.00048 23.7996 8.66108 22.056 8.66657C14.7414 8.66657 8.77869 14.5946 8.77869 21.8812C8.77869 24.1999 9.38935 26.4772 10.552 28.4866L8.91202 34.4412ZM12.4814 29.0172C12.5519 28.7613 12.5707 28.494 12.5368 28.2307C12.503 27.9675 12.417 27.7136 12.284 27.4839C11.2975 25.7815 10.7782 23.8488 10.7787 21.8812C10.7787 15.7079 15.836 10.6666 22.056 10.6666C25.0827 10.6666 27.9067 11.8359 30.0374 13.9572C31.0858 14.9941 31.9172 16.2294 32.4831 17.591C33.049 18.9527 33.3381 20.4134 33.3334 21.8879C33.3334 28.0612 28.276 33.1039 22.056 33.1039H22.0494C20.1663 33.1029 18.3131 32.6328 16.6574 31.7359C16.2111 31.4943 15.6896 31.4314 15.1987 31.5599L11.516 32.5212L12.4814 29.0172Z" fill="#000B05"/>
</g>
<path id="Vector_3" d="M21.848 12.56C22.092 12.5667 22.3627 12.58 22.62 13.1507C22.7907 13.5307 23.0773 14.2307 23.312 14.8013C23.4947 15.2453 23.644 15.6107 23.6813 15.6853C23.7667 15.856 23.82 16.052 23.708 16.2827L23.6707 16.36C23.5943 16.5392 23.4908 16.7055 23.364 16.8533C23.2996 16.9281 23.236 17.0037 23.1733 17.08C23.06 17.2187 22.9467 17.3547 22.8507 17.4507C22.6787 17.6213 22.5013 17.8053 22.6987 18.1467C22.8973 18.488 23.5893 19.6107 24.612 20.516C25.3605 21.1899 26.2186 21.731 27.1493 22.116C27.2427 22.156 27.3187 22.1893 27.376 22.2173C27.7187 22.388 27.9227 22.3613 28.12 22.132C28.3187 21.9013 28.9773 21.1333 29.2093 20.792C29.4333 20.4507 29.6627 20.504 29.98 20.6213C30.2973 20.74 31.9853 21.568 32.328 21.7373L32.5187 21.8307C32.7573 21.944 32.9187 22.0227 32.988 22.1373C33.0733 22.2827 33.0733 22.964 32.7907 23.7667C32.5 24.5667 31.1013 25.3347 30.468 25.3933L30.288 25.4147C29.7067 25.484 28.9707 25.5747 26.3467 24.5413C23.112 23.2693 20.9773 20.1147 20.5467 19.476C20.5237 19.4418 20.5001 19.4081 20.476 19.3747L20.468 19.364C20.272 19.1013 19.0707 17.4947 19.0707 15.836C19.0707 14.2493 19.8533 13.4227 20.2093 13.0467L20.272 12.98C20.3872 12.8498 20.528 12.7448 20.6856 12.6714C20.8432 12.598 21.0142 12.5578 21.188 12.5533C21.4187 12.5533 21.6507 12.5533 21.848 12.56Z" fill="#FFDD82"/>
<path id="Vector_4" fill-rule="evenodd" clip-rule="evenodd" d="M12.912 31.4413C12.8869 31.5317 12.8861 31.6271 12.9096 31.718C12.9331 31.8088 12.9802 31.8918 13.0461 31.9586C13.1119 32.0254 13.1943 32.0736 13.2847 32.0985C13.3752 32.1233 13.4706 32.1238 13.5614 32.1L19.704 30.4947C21.6529 31.5503 23.8343 32.1034 26.0507 32.104H26.056C33.3707 32.104 39.3334 26.176 39.3334 18.888C39.338 17.15 38.9969 15.4285 38.3298 13.8237C37.6628 12.2188 36.6832 10.7626 35.448 9.53999C34.2152 8.30704 32.7507 7.33007 31.1389 6.66532C29.527 6.00057 27.7996 5.66118 26.056 5.66666C18.7414 5.66666 12.7787 11.5947 12.7787 18.8813C12.7787 21.2 13.3894 23.4773 14.552 25.4867L12.912 31.4413ZM16.4814 26.0173C16.5519 25.7614 16.5707 25.4941 16.5368 25.2308C16.503 24.9676 16.417 24.7137 16.284 24.484C15.2975 22.7816 14.7782 20.8489 14.7787 18.8813C14.7787 12.708 19.836 7.66666 26.056 7.66666C29.0827 7.66666 31.9067 8.83599 34.0374 10.9573C35.0858 11.9942 35.9172 13.2295 36.4831 14.5911C37.049 15.9527 37.3381 17.4135 37.3334 18.888C37.3334 25.0613 32.276 30.104 26.056 30.104H26.0494C24.1663 30.103 22.3131 29.6329 20.6574 28.736C20.2111 28.4944 19.6896 28.4315 19.1987 28.56L15.516 29.5213L16.4814 26.0173Z" fill="#FFDD82"/>
</g>
<defs>
<filter id="filter0_f_10_908" x="7.07068" y="7.55322" width="29.9671" height="28.8996" filterUnits="userSpaceOnUse" color-interpolation-filters="sRGB">
<feFlood flood-opacity="0" result="BackgroundImageFix"/>
<feBlend mode="normal" in="SourceGraphic" in2="BackgroundImageFix" result="shape"/>
<feGaussianBlur stdDeviation="4" result="effect1_foregroundBlur_10_908"/>
</filter>
<filter id="filter1_f_10_908" x="0.778687" y="0.666504" width="42.5547" height="42.4509" filterUnits="userSpaceOnUse" color-interpolation-filters="sRGB">
<feFlood flood-opacity="0" result="BackgroundImageFix"/>
<feBlend mode="normal" in="SourceGraphic" in2="BackgroundImageFix" result="shape"/>
<feGaussianBlur stdDeviation="4" result="effect1_foregroundBlur_10_908"/>
</filter>
</defs>
</svg>
