<svg width="32" height="32" viewBox="0 0 32 32" fill="none" xmlns="http://www.w3.org/2000/svg">
<g id="f7:link">
<path id="Vector" d="M15.8328 21.5177L17.6139 19.7097C15.8465 19.576 14.6945 19.04 13.8242 18.1697C11.4802 15.8257 11.4933 12.5046 13.8105 10.1874L18.1762 5.8217C20.5202 3.49084 23.815 3.4777 26.1453 5.8217C28.5025 8.16513 28.4756 11.4731 26.159 13.7903L23.5339 16.4154C23.9088 17.2726 23.9893 18.2634 23.855 19.1337L27.779 15.2097C30.9939 11.9954 31.0202 7.45541 27.7659 4.20113C24.5116 0.946272 19.9716 0.973129 16.7568 4.18741L12.1899 8.76799C8.97562 11.9823 8.94876 16.536 12.2036 19.7766C13.047 20.6206 14.1185 21.2234 15.8328 21.5177ZM16.1676 10.4823L14.3865 12.2903C16.1545 12.4377 17.3065 12.96 18.1768 13.8303C20.5202 16.1743 20.507 19.4954 18.1899 21.8126L13.8105 26.1783C11.4802 28.5091 8.17219 28.5223 5.8419 26.192C3.4979 23.8348 3.51162 20.5406 5.8419 18.2097L8.46647 15.5846C8.09162 14.7411 7.9979 13.7366 8.13219 12.8663L4.20762 16.7903C1.00704 20.0046 0.980188 24.5583 4.22133 27.7988C7.47562 31.0537 12.0293 31.0268 15.2305 27.8257L19.8105 23.232C23.0248 20.0177 23.0516 15.4646 19.7973 12.2234C18.9533 11.3794 17.8819 10.7766 16.1676 10.4823Z" fill="#000B05"/>
</g>
</svg>
