<svg width="64" height="64" viewBox="0 0 64 64" fill="none" xmlns="http://www.w3.org/2000/svg">
<g id="fluent:money-20-filled">
<path id="Vector" d="M11.2004 12.8C9.92735 12.8 8.70645 13.3057 7.80628 14.2059C6.9061 15.1061 6.40039 16.327 6.40039 17.6V40C6.40039 41.273 6.9061 42.4939 7.80628 43.3941C8.70645 44.2943 9.92735 44.8 11.2004 44.8H46.4004C47.6734 44.8 48.8943 44.2943 49.7945 43.3941C50.6947 42.4939 51.2004 41.273 51.2004 40V17.6C51.2004 16.327 50.6947 15.1061 49.7945 14.2059C48.8943 13.3057 47.6734 12.8 46.4004 12.8H11.2004ZM19.2004 16V19.2C19.2004 20.8974 18.5261 22.5253 17.3259 23.7255C16.1256 24.9257 14.4978 25.6 12.8004 25.6H9.60039V22.4H12.8004C13.6491 22.4 14.463 22.0629 15.0631 21.4627C15.6632 20.8626 16.0004 20.0487 16.0004 19.2V16H19.2004ZM28.8004 34.4C27.3152 34.4 25.8908 33.81 24.8406 32.7598C23.7904 31.7096 23.2004 30.2852 23.2004 28.8C23.2004 27.3148 23.7904 25.8904 24.8406 24.8402C25.8908 23.79 27.3152 23.2 28.8004 23.2C30.2856 23.2 31.71 23.79 32.7602 24.8402C33.8104 25.8904 34.4004 27.3148 34.4004 28.8C34.4004 30.2852 33.8104 31.7096 32.7602 32.7598C31.71 33.81 30.2856 34.4 28.8004 34.4ZM9.60039 35.2V32H12.8004C14.4978 32 16.1256 32.6743 17.3259 33.8745C18.5261 35.0748 19.2004 36.7026 19.2004 38.4V41.6H16.0004V38.4C16.0004 37.5513 15.6632 36.7374 15.0631 36.1373C14.463 35.5371 13.6491 35.2 12.8004 35.2H9.60039ZM44.8004 35.2C43.9517 35.2 43.1378 35.5371 42.5377 36.1373C41.9375 36.7374 41.6004 37.5513 41.6004 38.4V41.6H38.4004V38.4C38.4004 36.7026 39.0747 35.0748 40.2749 33.8745C41.4751 32.6743 43.103 32 44.8004 32H48.0004V35.2H44.8004ZM44.8004 22.4H48.0004V25.6H44.8004C43.103 25.6 41.4751 24.9257 40.2749 23.7255C39.0747 22.5253 38.4004 20.8974 38.4004 19.2V16H41.6004V19.2C41.6004 20.0487 41.9375 20.8626 42.5377 21.4627C43.1378 22.0629 43.9517 22.4 44.8004 22.4ZM54.4004 40C54.4004 42.1217 53.5575 44.1566 52.0572 45.6569C50.557 47.1571 48.5221 48 46.4004 48H13.0724C13.4034 48.9362 14.0167 49.7468 14.8276 50.3199C15.6386 50.893 16.6073 51.2005 17.6004 51.2H46.4004C49.3708 51.2 52.2196 50.02 54.32 47.9196C56.4204 45.8192 57.6004 42.9704 57.6004 40V24C57.6009 23.007 57.2934 22.0382 56.7203 21.2272C56.1472 20.4163 55.3366 19.803 54.4004 19.472V40Z" fill="#029D44"/>
</g>
</svg>
