<svg width="126" height="31" viewBox="0 0 126 31" fill="none" xmlns="http://www.w3.org/2000/svg">
<path d="M4.802 13.519C3.99933 13.519 3.27133 13.3884 2.618 13.127C1.974 12.8564 1.45133 12.4597 1.05 11.937C0.648667 11.405 0.410667 10.7657 0.336 10.019H1.792C1.904 10.7284 2.22133 11.2884 2.744 11.699C3.26667 12.1004 3.906 12.301 4.662 12.301C5.23133 12.301 5.69333 12.1984 6.048 11.993C6.412 11.7877 6.594 11.4844 6.594 11.083C6.594 10.7937 6.50533 10.5557 6.328 10.369C6.15067 10.1824 5.90333 10.0284 5.586 9.90702C5.26867 9.77635 4.82533 9.62702 4.256 9.45902C3.49067 9.22569 2.86067 9.00169 2.366 8.78702C1.88067 8.56302 1.46067 8.24569 1.106 7.83502C0.760667 7.42435 0.588 6.89702 0.588 6.25302C0.588 5.59035 0.779333 5.03969 1.162 4.60102C1.54467 4.15302 2.03933 3.82635 2.646 3.62102C3.25267 3.40635 3.90133 3.29902 4.592 3.29902C5.33867 3.29902 6.02 3.42502 6.636 3.67702C7.252 3.92902 7.756 4.31169 8.148 4.82502C8.54 5.33835 8.77333 5.96835 8.848 6.71502H7.35C7.22867 6.02435 6.93467 5.49235 6.468 5.11902C6.01067 4.73635 5.42733 4.54502 4.718 4.54502C4.23267 4.54502 3.81267 4.64302 3.458 4.83902C3.10333 5.02569 2.926 5.30569 2.926 5.67902C2.926 5.95902 3.01933 6.19235 3.206 6.37902C3.402 6.55635 3.64933 6.70569 3.948 6.82702C4.256 6.93902 4.69467 7.07902 5.264 7.24702C6.06667 7.48035 6.72467 7.71369 7.238 7.94702C7.75133 8.17102 8.18067 8.48835 8.526 8.89902C8.87133 9.30969 9.044 9.84169 9.044 10.495C9.044 11.1484 8.85733 11.7037 8.484 12.161C8.11067 12.609 7.602 12.9497 6.958 13.183C6.32333 13.407 5.60467 13.519 4.802 13.519ZM10.7353 3.50902H14.1793L16.5453 9.99102L18.8973 3.50902H22.2433V13.309H19.6393V5.25902L16.6993 13.309H15.0893L12.1773 5.35702V13.309H10.7353V3.50902ZM27.3656 3.50902H29.9836L33.6096 13.309H30.8096L29.8996 10.775H26.1476L25.2376 13.309H23.7256L27.3656 3.50902ZM29.5216 9.59902L28.0656 5.55302H27.9816L26.5256 9.59902H29.5216ZM38.8148 3.50902C40.1028 3.50902 41.1154 3.77035 41.8528 4.29302C42.5901 4.81569 42.9588 5.53902 42.9588 6.46302C42.9588 7.03235 42.7861 7.52702 42.4408 7.94702C42.0954 8.36702 41.6241 8.69369 41.0268 8.92702L43.8828 13.309H40.9148L38.3388 9.37502H38.2688H37.4568V13.309H34.8388V3.50902H38.8148ZM38.8008 8.19902C39.3141 8.19902 39.7108 8.04969 39.9908 7.75102C40.2801 7.44302 40.4248 7.02302 40.4248 6.49102C40.4248 5.95902 40.2801 5.54369 39.9908 5.24502C39.7108 4.94635 39.3141 4.79702 38.8008 4.79702H37.4568V8.19902H38.8008ZM47.6684 3.50902H50.2864L53.9124 13.309H51.1124L50.2024 10.775H46.4504L45.5404 13.309H44.0284L47.6684 3.50902ZM49.8244 9.59902L48.3684 5.55302H48.2844L46.8284 9.59902H49.8244ZM58.9118 13.519C58.0438 13.519 57.2598 13.3044 56.5598 12.875C55.8691 12.4457 55.3278 11.8484 54.9358 11.083C54.5531 10.3177 54.3618 9.44502 54.3618 8.46502C54.3618 7.44769 54.5718 6.54702 54.9918 5.76302C55.4118 4.97902 55.9951 4.37235 56.7418 3.94302C57.4884 3.51369 58.3378 3.29902 59.2898 3.29902C60.0644 3.29902 60.7598 3.44369 61.3758 3.73302C62.0011 4.02235 62.5098 4.42835 62.9018 4.95102C63.3031 5.47369 63.5691 6.07102 63.6998 6.74302H62.1878C62.0104 6.16435 61.7118 5.70235 61.2918 5.35702C60.8811 5.01169 60.3724 4.83902 59.7658 4.83902C59.2338 4.83902 58.7624 4.99302 58.3518 5.30102C57.9411 5.59969 57.6191 6.02435 57.3858 6.57502C57.1618 7.11635 57.0498 7.73702 57.0498 8.43702C57.0498 9.14635 57.1618 9.78102 57.3858 10.341C57.6191 10.8917 57.9318 11.321 58.3238 11.629C58.7158 11.937 59.1544 12.091 59.6398 12.091C60.1344 12.091 60.5544 11.9137 60.8998 11.559C61.2451 11.2044 61.4598 10.7424 61.5438 10.173V9.27702H59.5418V8.15702H64.1618V13.309H61.8098V12.035C61.5298 12.5017 61.1424 12.8657 60.6478 13.127C60.1624 13.3884 59.5838 13.519 58.9118 13.519ZM69.5064 3.50902C70.6357 3.50902 71.6251 3.71435 72.4744 4.12502C73.3237 4.52635 73.9771 5.10035 74.4344 5.84702C74.8917 6.58435 75.1204 7.43835 75.1204 8.40902C75.1204 9.37969 74.8917 10.2337 74.4344 10.971C73.9771 11.7084 73.3237 12.2824 72.4744 12.693C71.6251 13.1037 70.6357 13.309 69.5064 13.309H66.1884V3.50902H69.5064ZM69.5764 12.007C70.4911 12.007 71.1911 11.7037 71.6764 11.097C72.1617 10.4904 72.4044 9.59435 72.4044 8.40902C72.4044 7.22369 72.1617 6.32769 71.6764 5.72102C71.1911 5.11435 70.4911 4.81102 69.5764 4.81102H68.8204V12.007H69.5764ZM82.6989 4.92302H79.5209V3.50902H88.5089V4.92302H85.3309V13.309H82.6989V4.92302ZM93.9529 13.519C92.9729 13.519 92.0909 13.2997 91.3069 12.861C90.5322 12.4224 89.9209 11.8157 89.4729 11.041C89.0342 10.257 88.8149 9.37969 88.8149 8.40902C88.8149 7.42902 89.0342 6.55169 89.4729 5.77702C89.9116 5.00235 90.5229 4.39569 91.3069 3.95702C92.0909 3.51835 92.9729 3.29902 93.9529 3.29902C94.9329 3.29902 95.8102 3.51835 96.5849 3.95702C97.3689 4.39569 97.9802 5.00235 98.4189 5.77702C98.8576 6.55169 99.0769 7.42902 99.0769 8.40902C99.0769 9.37969 98.8576 10.257 98.4189 11.041C97.9802 11.8157 97.3689 12.4224 96.5849 12.861C95.8102 13.2997 94.9329 13.519 93.9529 13.519ZM93.9529 12.091C94.7089 12.091 95.3016 11.769 95.7309 11.125C96.1696 10.481 96.3889 9.57569 96.3889 8.40902C96.3889 7.23302 96.1696 6.32302 95.7309 5.67902C95.3016 5.03502 94.7089 4.71302 93.9529 4.71302C93.1876 4.71302 92.5856 5.03502 92.1469 5.67902C91.7176 6.32302 91.5029 7.23302 91.5029 8.40902C91.5029 9.58502 91.7176 10.495 92.1469 11.139C92.5856 11.7737 93.1876 12.091 93.9529 12.091ZM99.8953 3.50902H102.611L104.459 10.705L106.195 3.50902H108.435L110.311 10.705L112.201 3.50902H113.657L111.123 13.309H108.533L106.713 6.28102L105.019 13.309H102.429L99.8953 3.50902ZM115.215 3.50902H117.847L122.383 9.59902V3.50902H123.755V13.547H122.229L116.601 6.14102V13.309H115.215V3.50902Z" fill="white"/>
<line x1="0.75" y1="19.309" x2="0.75" y2="30.691" stroke="#447D5A" stroke-width="1.5"/>
<path d="M6.93159 22.2125L7.98159 22.2166L7.96482 26.5166L8.68482 26.5194L10.6134 24.3269L11.3034 24.3296L9.47512 26.4425L11.5639 29.3306L10.3439 29.3259L8.66252 27.1093L7.96252 27.1066L7.95391 29.3165L6.90391 29.3125L6.93159 22.2125ZM14.662 29.4427C14.1487 29.4407 13.6824 29.3255 13.2633 29.0972C12.8509 28.869 12.5254 28.5577 12.2869 28.1634C12.0552 27.7692 11.9402 27.3254 11.9421 26.8321C11.9441 26.3387 12.0625 25.8959 12.2973 25.5035C12.5389 25.1044 12.8668 24.7957 13.2809 24.5773C13.7018 24.3523 14.1689 24.2407 14.6823 24.2427C15.1956 24.2447 15.6585 24.3599 16.0709 24.5882C16.4901 24.8098 16.8155 25.1211 17.0473 25.522C17.2791 25.9162 17.394 26.36 17.3921 26.8533C17.3902 27.3467 17.2718 27.7895 17.0369 28.182C16.802 28.5744 16.4742 28.8831 16.0533 29.1081C15.6391 29.3332 15.1753 29.4447 14.662 29.4427ZM14.6642 28.8627C14.9842 28.864 15.2679 28.7817 15.5152 28.616C15.7692 28.4503 15.9668 28.2144 16.108 27.9083C16.2492 27.6022 16.3205 27.2492 16.3221 26.8492C16.3237 26.4492 16.255 26.0956 16.1162 25.7883C15.9775 25.4745 15.7817 25.2337 15.5291 25.066C15.283 24.8984 15 24.814 14.68 24.8127C14.36 24.8115 14.073 24.8937 13.8191 25.0594C13.5717 25.2251 13.3775 25.461 13.2363 25.7671C13.0951 26.0732 13.0237 26.4296 13.0221 26.8363C13.0206 27.2363 13.0892 27.5899 13.228 27.8971C13.3668 28.2043 13.5592 28.4417 13.8052 28.6094C14.0579 28.777 14.3442 28.8615 14.6642 28.8627ZM19.8607 24.9629L17.9407 24.9554L17.943 24.3555L22.823 24.3745L22.8206 24.9745L20.9106 24.967L20.8935 29.367L19.8435 29.3629L19.8607 24.9629ZM26.0079 29.4869C25.5012 29.485 25.045 29.3732 24.6392 29.1516C24.2401 28.93 23.9246 28.6221 23.6928 28.2279C23.4677 27.827 23.3561 27.3799 23.358 26.8866C23.36 26.3866 23.4784 25.9404 23.7132 25.548C23.9481 25.1489 24.2693 24.8401 24.6769 24.6217C25.0844 24.3966 25.5415 24.2851 26.0482 24.2871C26.5482 24.289 26.9944 24.4041 27.3868 24.6323C27.786 24.8538 28.0981 25.1617 28.3233 25.5559C28.5484 25.9501 28.66 26.3939 28.6581 26.8872C28.6577 26.9806 28.6541 27.0472 28.6473 27.0872L24.4073 27.0707C24.4385 27.6308 24.6134 28.0782 24.9321 28.4127C25.2508 28.7473 25.6601 28.9156 26.1601 28.9175C26.5468 28.919 26.8838 28.827 27.1712 28.6415C27.4653 28.4559 27.6729 28.2068 27.7941 27.8939L28.4241 27.8963C28.3023 28.3692 28.0241 28.7548 27.5896 29.0531C27.1551 29.3447 26.6279 29.4894 26.0079 29.4869ZM27.6189 26.6832C27.5944 26.1031 27.4362 25.6458 27.1442 25.3113C26.8522 24.9702 26.4795 24.7987 26.0262 24.797C25.5795 24.7952 25.2055 24.9638 24.9042 25.3026C24.6096 25.6415 24.4445 26.0808 24.4091 26.6207L24.4089 26.6707L27.6189 26.6832ZM29.714 28.8214C29.9975 27.9425 30.1413 26.9497 30.1457 25.843C30.146 25.7497 30.1303 25.5196 30.0984 25.1529L30.0613 24.4027L34.0612 24.4183L34.044 28.8383L34.774 28.8411L34.767 30.6511L33.837 30.6475L33.8418 29.4175L30.0518 29.4027L30.047 30.6327L29.117 30.6291L29.1241 28.8191L29.714 28.8214ZM33.0091 24.9642L30.8691 24.9559L30.826 25.7557C30.7767 26.4222 30.7112 26.9953 30.6293 27.4749C30.5474 27.9546 30.4457 28.4109 30.324 28.8438L32.9939 28.8542L33.0091 24.9642ZM37.1377 26.5403L35.4759 24.4238L36.1759 24.4265L37.9473 26.6335L38.6673 26.6363L38.6841 22.3363L39.7341 22.3404L39.7173 26.6404L40.4373 26.6432L42.2359 24.4502L42.9259 24.4529L41.2577 26.5564L43.1064 29.4536L41.9164 29.449L40.435 27.2332L39.715 27.2304L39.7064 29.4403L38.6564 29.4362L38.665 27.2263L37.945 27.2235L36.4464 29.4276L35.2664 29.423L37.1377 26.5403ZM44.2278 24.4579L45.2778 24.462L45.2692 26.662L47.8692 26.6721L47.8778 24.4722L48.9278 24.4763L48.9083 29.4762L47.8583 29.4721L47.8669 27.2621L45.2669 27.252L45.2583 29.462L44.2083 29.4579L44.2278 24.4579ZM52.9218 29.5919C52.4151 29.5899 51.9589 29.4781 51.5531 29.2565C51.1539 29.035 50.8385 28.7271 50.6067 28.3328C50.3816 27.932 50.27 27.4848 50.2719 26.9915C50.2738 26.4915 50.3922 26.0453 50.6271 25.6529C50.862 25.2538 51.1832 24.9451 51.5907 24.7266C51.9983 24.5016 52.4554 24.39 52.962 24.392C53.462 24.3939 53.9083 24.509 54.3007 24.7372C54.6998 24.9588 55.012 25.2666 55.2371 25.6609C55.4622 26.0551 55.5738 26.4988 55.5719 26.9922C55.5716 27.0855 55.568 27.1522 55.5611 27.1921L51.3212 27.1756C51.3523 27.7357 51.5272 28.1831 51.8459 28.5177C52.1646 28.8522 52.574 29.0205 53.074 29.0225C53.4607 29.024 53.7977 28.9319 54.0851 28.7464C54.3791 28.5609 54.5868 28.3117 54.708 27.9988L55.338 28.0013C55.2161 28.4741 54.938 28.8597 54.5035 29.158C54.069 29.4497 53.5418 29.5943 52.9218 29.5919ZM54.5327 26.7881C54.5083 26.208 54.3501 25.7507 54.0581 25.4163C53.766 25.0751 53.3934 24.9037 52.9401 24.9019C52.4934 24.9002 52.1194 25.0687 51.8181 25.4075C51.5234 25.7464 51.3584 26.1857 51.3229 26.7256L51.3227 26.7756L54.5327 26.7881ZM59.3351 24.5168L60.7051 24.5222L62.4104 28.3089L64.1251 24.5355L65.4251 24.5406L65.4056 29.5405L64.3656 29.5365L64.3819 25.3465L62.4756 29.5291L61.8656 29.5267L59.952 25.3292L59.9356 29.5192L59.3156 29.5168L59.3351 24.5168ZM67.2257 24.5476L68.2757 24.5517L68.2562 29.5517L67.2062 29.5476L67.2257 24.5476ZM67.1152 22.0971L68.4152 22.1022L67.8082 23.8999L67.7082 23.8995L67.1152 22.0971ZM72.2573 29.6673C71.7507 29.6653 71.2944 29.5535 70.8886 29.3319C70.4895 29.1037 70.1774 28.7925 69.9523 28.3983C69.7271 27.9974 69.6156 27.5503 69.6175 27.0569C69.6194 26.5569 69.7345 26.1107 69.9627 25.7183C70.1909 25.3258 70.5054 25.0204 70.9063 24.8019C71.3138 24.5769 71.7709 24.4653 72.2776 24.4673C72.9376 24.4699 73.4869 24.652 73.9255 25.0137C74.3641 25.3754 74.6289 25.8598 74.7198 26.4668L74.0998 26.4644C74.0081 26.044 73.8128 25.71 73.5137 25.4621C73.2214 25.2076 72.8619 25.0796 72.4352 25.0779C71.9152 25.0759 71.4945 25.2576 71.1731 25.623C70.8517 25.9884 70.6898 26.4678 70.6875 27.0611C70.686 27.4478 70.758 27.7914 70.9035 28.092C71.0489 28.3925 71.2514 28.6267 71.5107 28.7943C71.7767 28.962 72.0797 29.0466 72.4197 29.0479C72.8464 29.0495 73.2069 28.9276 73.5012 28.6821C73.8022 28.4299 74.0001 28.094 74.0951 27.6744L74.7151 27.6768C74.6194 28.2831 74.3508 28.7687 73.9094 29.1337C73.468 29.492 72.9173 29.6698 72.2573 29.6673ZM77.1161 25.1862L75.1961 25.1787L75.1984 24.5787L80.0784 24.5977L80.0761 25.1977L78.1661 25.1903L78.1489 29.5902L77.0989 29.5861L77.1161 25.1862ZM83.2633 29.7102C82.7567 29.7082 82.3004 29.5964 81.8946 29.3748C81.4955 29.1533 81.18 28.8454 80.9482 28.4511C80.7231 28.0502 80.6115 27.6031 80.6134 27.1098C80.6154 26.6098 80.7338 26.1636 80.9687 25.7712C81.2036 25.3721 81.5248 25.0633 81.9323 24.8449C82.3398 24.6199 82.7969 24.5083 83.3036 24.5103C83.8036 24.5122 84.2498 24.6273 84.6423 24.8555C85.0414 25.0771 85.3535 25.3849 85.5787 25.7792C85.8038 26.1734 85.9154 26.6171 85.9135 27.1105C85.9131 27.2038 85.9095 27.2705 85.9027 27.3104L81.6627 27.2939C81.6939 27.854 81.8688 28.3014 82.1875 28.636C82.5062 28.9705 82.9156 29.1388 83.4156 29.1408C83.8022 29.1423 84.1392 29.0502 84.4266 28.8647C84.7207 28.6792 84.9283 28.43 85.0496 28.1171L85.6796 28.1196C85.5577 28.5924 85.2795 28.978 84.845 29.2763C84.4106 29.568 83.8833 29.7126 83.2633 29.7102ZM84.8743 26.9064C84.8499 26.3263 84.6917 25.869 84.3996 25.5346C84.1076 25.1934 83.7349 25.022 83.2816 25.0202C82.835 25.0185 82.461 25.187 82.1596 25.5258C81.865 25.8647 81.6999 26.304 81.6645 26.8439L81.6643 26.8939L84.8743 26.9064ZM88.9748 27.6824C88.2881 27.6797 87.7553 27.541 87.3764 27.2662C87.0042 26.9847 86.819 26.5907 86.821 26.084L86.8267 24.624L87.8767 24.6281L87.8709 26.1081C87.8697 26.4214 87.9688 26.6651 88.1681 26.8393C88.3674 27.0134 88.6504 27.1011 89.0171 27.1026L90.187 27.1071L90.1967 24.6372L91.2467 24.6412L91.2272 29.6412L90.1772 29.6371L90.1848 27.6871L88.9748 27.6824ZM93.0442 22.5482L94.0942 22.5523L94.0774 26.8523L94.7974 26.8551L96.726 24.6626L97.416 24.6653L95.5877 26.7782L97.6765 29.6664L96.4565 29.6616L94.7751 27.445L94.0751 27.4423L94.0665 29.6523L93.0165 29.6482L93.0442 22.5482ZM100.775 29.7784C100.261 29.7764 99.7951 29.6613 99.3759 29.433C98.9635 29.2047 98.638 28.8934 98.3996 28.4992C98.1678 28.1049 98.0528 27.6611 98.0548 27.1678C98.0567 26.6745 98.1751 26.2316 98.4099 25.8392C98.6515 25.4401 98.9794 25.1314 99.3936 24.913C99.8144 24.688 100.282 24.5765 100.795 24.5785C101.308 24.5805 101.771 24.6956 102.184 24.9239C102.603 25.1455 102.928 25.4568 103.16 25.8577C103.392 26.2519 103.507 26.6957 103.505 27.1891C103.503 27.6824 103.384 28.1253 103.15 28.5177C102.915 28.9101 102.587 29.2188 102.166 29.4439C101.752 29.6689 101.288 29.7804 100.775 29.7784ZM100.777 29.1984C101.097 29.1997 101.381 29.1175 101.628 28.9518C101.882 28.7861 102.079 28.5502 102.221 28.2441C102.362 27.9379 102.433 27.5849 102.435 27.1849C102.436 26.7849 102.368 26.4313 102.229 26.1241C102.09 25.8102 101.894 25.5694 101.642 25.4018C101.396 25.2342 101.113 25.1497 100.793 25.1485C100.473 25.1472 100.186 25.2294 99.9317 25.3951C99.6844 25.5608 99.4901 25.7967 99.3489 26.1028C99.2077 26.409 99.1363 26.7654 99.1348 27.172C99.1332 27.572 99.2018 27.9256 99.3406 28.2328C99.4794 28.54 99.6718 28.7775 99.9178 28.9451C100.171 29.1127 100.457 29.1972 100.777 29.1984Z" fill="#447D5A"/>
</svg>
