<svg width="32" height="33" viewBox="0 0 32 33" fill="none" xmlns="http://www.w3.org/2000/svg">
<g id="basil:phone-solid">
<path id="Vector" d="M6.66666 13.6466C9.22647 19.2211 13.7749 23.6392 19.4213 26.036L20.328 26.44C21.332 26.8871 22.4617 26.9654 23.5178 26.6613C24.574 26.3571 25.4889 25.6899 26.1013 24.7773L27.2867 23.012C27.4721 22.7351 27.5472 22.3988 27.4971 22.0694C27.447 21.7399 27.2754 21.4412 27.016 21.232L23 17.992C22.8601 17.8792 22.6989 17.7959 22.5261 17.747C22.3532 17.6981 22.1722 17.6846 21.994 17.7074C21.8158 17.7302 21.644 17.7888 21.489 17.8796C21.334 17.9704 21.199 18.0916 21.092 18.236L19.8493 19.912C16.6595 18.3366 14.0775 15.7541 12.5027 12.564L14.1773 11.3213C14.3217 11.2143 14.4429 11.0793 14.5337 10.9243C14.6245 10.7693 14.6831 10.5975 14.7059 10.4193C14.7287 10.2411 14.7152 10.0601 14.6663 9.88725C14.6174 9.71437 14.5341 9.55317 14.4213 9.4133L11.1813 5.3973C10.9721 5.13791 10.6734 4.96625 10.3439 4.91616C10.0145 4.86606 9.67818 4.94115 9.40133 5.12664L7.624 6.31864C6.70586 6.93434 6.03612 7.85599 5.73407 8.91939C5.43202 9.98279 5.51728 11.1189 5.97466 12.1253L6.66666 13.6466Z" fill="white"/>
</g>
</svg>
