<svg width="64" height="64" viewBox="0 0 64 64" fill="none" xmlns="http://www.w3.org/2000/svg">
<g id="fluent:building-16-filled">
<path id="Vector" d="M22 8C20.4087 8 18.8826 8.63214 17.7574 9.75736C16.6321 10.8826 16 12.4087 16 14V54C16 54.5304 16.2107 55.0391 16.5858 55.4142C16.9609 55.7893 17.4696 56 18 56H24V46C24 45.4696 24.2107 44.9609 24.5858 44.5858C24.9609 44.2107 25.4696 44 26 44H42C42.5304 44 43.0391 44.2107 43.4142 44.5858C43.7893 44.9609 44 45.4696 44 46V56H50C50.5304 56 51.0391 55.7893 51.4142 55.4142C51.7893 55.0391 52 54.5304 52 54V34C52 32.4087 51.3679 30.8826 50.2426 29.7574C49.1174 28.6321 47.5913 28 46 28H44V14C44 12.4087 43.3679 10.8826 42.2426 9.75736C41.1174 8.63214 39.5913 8 38 8H22ZM28 18C28 18.5304 27.7893 19.0391 27.4142 19.4142C27.0391 19.7893 26.5304 20 26 20C25.4696 20 24.9609 19.7893 24.5858 19.4142C24.2107 19.0391 24 18.5304 24 18C24 17.4696 24.2107 16.9609 24.5858 16.5858C24.9609 16.2107 25.4696 16 26 16C26.5304 16 27.0391 16.2107 27.4142 16.5858C27.7893 16.9609 28 17.4696 28 18ZM28 28C28 28.5304 27.7893 29.0391 27.4142 29.4142C27.0391 29.7893 26.5304 30 26 30C25.4696 30 24.9609 29.7893 24.5858 29.4142C24.2107 29.0391 24 28.5304 24 28C24 27.4696 24.2107 26.9609 24.5858 26.5858C24.9609 26.2107 25.4696 26 26 26C26.5304 26 27.0391 26.2107 27.4142 26.5858C27.7893 26.9609 28 27.4696 28 28ZM28 38C28 38.5304 27.7893 39.0391 27.4142 39.4142C27.0391 39.7893 26.5304 40 26 40C25.4696 40 24.9609 39.7893 24.5858 39.4142C24.2107 39.0391 24 38.5304 24 38C24 37.4696 24.2107 36.9609 24.5858 36.5858C24.9609 36.2107 25.4696 36 26 36C26.5304 36 27.0391 36.2107 27.4142 36.5858C27.7893 36.9609 28 37.4696 28 38ZM36 18C36 18.5304 35.7893 19.0391 35.4142 19.4142C35.0391 19.7893 34.5304 20 34 20C33.4696 20 32.9609 19.7893 32.5858 19.4142C32.2107 19.0391 32 18.5304 32 18C32 17.4696 32.2107 16.9609 32.5858 16.5858C32.9609 16.2107 33.4696 16 34 16C34.5304 16 35.0391 16.2107 35.4142 16.5858C35.7893 16.9609 36 17.4696 36 18ZM36 28C36 28.5304 35.7893 29.0391 35.4142 29.4142C35.0391 29.7893 34.5304 30 34 30C33.4696 30 32.9609 29.7893 32.5858 29.4142C32.2107 29.0391 32 28.5304 32 28C32 27.4696 32.2107 26.9609 32.5858 26.5858C32.9609 26.2107 33.4696 26 34 26C34.5304 26 35.0391 26.2107 35.4142 26.5858C35.7893 26.9609 36 27.4696 36 28ZM36 38C36 38.5304 35.7893 39.0391 35.4142 39.4142C35.0391 39.7893 34.5304 40 34 40C33.4696 40 32.9609 39.7893 32.5858 39.4142C32.2107 39.0391 32 38.5304 32 38C32 37.4696 32.2107 36.9609 32.5858 36.5858C32.9609 36.2107 33.4696 36 34 36C34.5304 36 35.0391 36.2107 35.4142 36.5858C35.7893 36.9609 36 37.4696 36 38ZM44 38C44 38.5304 43.7893 39.0391 43.4142 39.4142C43.0391 39.7893 42.5304 40 42 40C41.4696 40 40.9609 39.7893 40.5858 39.4142C40.2107 39.0391 40 38.5304 40 38C40 37.4696 40.2107 36.9609 40.5858 36.5858C40.9609 36.2107 41.4696 36 42 36C42.5304 36 43.0391 36.2107 43.4142 36.5858C43.7893 36.9609 44 37.4696 44 38ZM40 56V48H36.012V56H40ZM32.012 56V48H28V56H32.012Z" fill="#029D44"/>
</g>
</svg>
