<svg width="32" height="32" viewBox="0 0 32 32" fill="none" xmlns="http://www.w3.org/2000/svg">
<g id="basil:cancel-solid">
<path id="Vector" fill-rule="evenodd" clip-rule="evenodd" d="M9.79339 5.356C13.9185 4.89875 18.0816 4.89875 22.2067 5.356C24.4907 5.612 26.3334 7.41067 26.6014 9.70267C27.0907 13.8866 27.0907 18.1134 26.6014 22.2973C26.3334 24.5893 24.4907 26.388 22.2067 26.644C18.0816 27.1013 13.9185 27.1013 9.79339 26.644C7.50939 26.388 5.66672 24.5893 5.39872 22.2973C4.90941 18.1138 4.90941 13.8875 5.39872 9.704C5.53428 8.59049 6.04189 7.55539 6.8393 6.76646C7.6367 5.97752 8.67716 5.48099 9.79205 5.35733M11.2934 11.2933C11.4809 11.1061 11.7351 11.0009 12.0001 11.0009C12.2651 11.0009 12.5192 11.1061 12.7067 11.2933L16.0001 14.5867L19.2934 11.2933C19.3849 11.1951 19.4953 11.1163 19.618 11.0616C19.7407 11.007 19.8731 10.9776 20.0074 10.9752C20.1416 10.9728 20.275 10.9975 20.3995 11.0478C20.524 11.0981 20.6371 11.173 20.7321 11.2679C20.8271 11.3629 20.9019 11.476 20.9522 11.6005C21.0025 11.7251 21.0272 11.8584 21.0248 11.9927C21.0225 12.127 20.9931 12.2594 20.9384 12.382C20.8838 12.5047 20.805 12.6151 20.7067 12.7067L17.4134 16L20.7067 19.2933C20.8834 19.4829 20.9795 19.7336 20.975 19.9927C20.9704 20.2518 20.8654 20.4989 20.6822 20.6822C20.499 20.8654 20.2518 20.9703 19.9928 20.9749C19.7337 20.9795 19.483 20.8833 19.2934 20.7067L16.0001 17.4133L12.7067 20.7067C12.6152 20.8049 12.5048 20.8837 12.3821 20.9384C12.2594 20.993 12.127 21.0224 11.9927 21.0248C11.8585 21.0272 11.7251 21.0025 11.6006 20.9522C11.4761 20.9019 11.363 20.827 11.268 20.732C11.173 20.6371 11.0982 20.524 11.0479 20.3995C10.9976 20.2749 10.9729 20.1416 10.9753 20.0073C10.9776 19.873 11.007 19.7406 11.0617 19.6179C11.1163 19.4953 11.1951 19.3849 11.2934 19.2933L14.5867 16L11.2934 12.7067C11.1061 12.5192 11.0009 12.265 11.0009 12C11.0009 11.735 11.1061 11.4808 11.2934 11.2933Z" fill="white"/>
</g>
</svg>
